<svg width="691" height="686" viewBox="0 0 691 686" fill="none" xmlns="http://www.w3.org/2000/svg">
<path d="M326.972 213.456C413.307 199.782 493.75 201.954 554.009 216.503C584.14 223.777 609.199 234.14 627.424 247.142C645.647 260.143 657.005 275.756 659.821 293.539C662.638 311.323 656.661 329.682 643.347 347.677C630.032 365.675 609.402 383.274 582.994 399.503C530.18 431.961 454.345 458.886 368.01 472.56C281.674 486.234 201.231 484.061 140.972 469.513C110.841 462.238 85.7817 451.875 67.5569 438.873C49.3339 425.873 37.9762 410.259 35.1596 392.476C32.3431 374.693 38.3201 356.334 51.6337 338.338C64.9488 320.341 85.5793 302.742 111.987 286.512C164.802 254.055 240.636 227.13 326.972 213.456Z" stroke="url(#paint0_linear_102_3)"/>
<path d="M329.236 213.118C415.797 200.952 496.19 204.529 556.186 220.127C586.185 227.926 611.06 238.724 629.055 252.043C647.048 265.359 658.132 281.169 660.637 298.998C663.143 316.828 656.847 335.08 643.221 352.84C629.594 370.602 608.659 387.839 581.972 403.605C528.599 435.136 452.306 460.733 365.746 472.898C279.185 485.064 198.792 481.487 138.796 465.889C108.796 458.09 83.9217 447.292 65.9265 433.973C47.9332 420.657 36.8497 404.847 34.3439 387.018C31.8382 369.188 38.1347 350.936 51.7603 333.176C65.3875 315.414 86.322 298.177 113.009 282.411C166.382 250.88 242.675 225.283 329.236 213.118Z" stroke="url(#paint1_linear_102_3)"/>
<path d="M331.505 212.819C418.265 202.166 498.584 207.145 558.298 223.787C588.157 232.109 612.839 243.34 630.599 256.97C648.357 270.599 659.163 286.599 661.358 304.47C663.552 322.34 656.938 340.48 643.004 357.999C629.069 375.521 607.837 392.39 580.879 407.688C526.964 438.282 450.236 462.544 363.476 473.197C276.716 483.85 196.397 478.871 136.683 462.228C106.824 453.906 82.1418 442.675 64.3818 429.045C46.6236 415.417 35.8177 399.416 33.6235 381.546C31.4293 363.675 38.0433 345.536 51.9769 328.016C65.912 310.494 87.1441 293.626 114.103 278.328C168.017 247.733 244.745 223.471 331.505 212.819Z" stroke="url(#paint2_linear_102_3)"/>
<path d="M333.78 212.56C420.713 203.423 500.932 209.802 560.347 227.485C590.056 236.326 614.539 247.986 632.058 261.924C649.576 275.861 660.101 292.047 661.983 309.953C663.865 327.86 656.935 345.881 642.698 363.155C628.459 380.431 606.936 396.926 579.714 411.751C525.274 441.4 448.134 464.319 361.201 473.456C274.269 482.593 194.049 476.213 134.634 458.531C104.926 449.69 80.4429 438.029 62.9234 424.092C45.4059 410.155 34.8809 393.968 32.9989 376.062C31.1168 358.156 38.0465 340.135 52.2837 322.861C66.5224 305.585 88.0458 289.09 115.267 274.265C169.708 244.615 246.847 221.697 333.78 212.56Z" stroke="url(#paint3_linear_102_3)"/>
<path d="M336.059 212.34C423.138 204.722 503.233 212.501 562.331 231.217C591.881 240.576 616.156 252.662 633.43 266.903C650.701 281.143 660.942 297.511 662.511 315.447C664.081 333.384 656.838 351.281 642.301 368.304C627.763 385.329 605.955 401.446 578.479 415.794C523.529 444.488 446.001 466.057 358.923 473.676C271.844 481.294 191.748 473.515 132.65 454.799C103.1 445.44 78.8251 433.354 61.5516 419.113C44.2799 404.873 34.039 388.505 32.4698 370.569C30.9005 352.632 38.1436 334.735 52.6801 317.712C67.2182 300.687 89.0262 284.57 116.502 270.222C171.452 241.528 248.98 219.959 336.059 212.34Z" stroke="url(#paint4_linear_102_3)"/>
<path d="M338.341 212.161C425.54 206.063 505.487 215.239 564.249 234.984C593.631 244.857 617.692 257.364 634.714 271.905C651.735 286.444 661.689 302.988 662.944 320.949C664.2 338.91 656.646 356.678 641.815 373.445C626.982 390.214 604.896 405.948 577.174 419.814C521.732 447.545 443.839 467.758 356.64 473.855C269.442 479.953 189.494 470.777 130.732 451.032C101.35 441.159 77.2893 428.652 60.2669 414.111C43.2464 399.572 33.2927 383.028 32.0368 365.067C30.7808 347.106 38.3352 329.337 53.1666 312.571C67.9995 295.802 90.0855 280.068 117.808 266.202C173.25 238.471 251.142 218.258 338.341 212.161Z" stroke="url(#paint5_linear_102_3)"/>
<path d="M340.626 212.021C427.918 207.446 507.693 218.015 566.101 238.783C595.307 249.167 619.145 262.093 635.911 276.928C652.676 291.762 662.339 308.478 663.281 326.458C664.224 344.438 656.36 362.072 641.239 378.577C626.115 395.084 603.758 410.43 575.798 423.81C519.881 450.57 441.647 469.42 354.355 473.995C267.064 478.569 187.288 468 128.88 447.232C99.6745 436.848 75.8357 423.923 59.0697 409.087C42.3056 394.253 32.6421 377.538 31.6998 359.558C30.7575 341.577 38.6208 323.944 53.7426 307.438C68.8659 290.931 91.2231 275.585 119.183 262.205C175.101 235.446 253.334 216.595 340.626 212.021Z" stroke="url(#paint6_linear_102_3)"/>
<path d="M342.913 211.921C430.271 208.87 509.85 220.83 567.887 242.614C596.907 253.506 620.516 266.846 637.021 281.972C653.523 297.096 662.894 313.978 663.522 331.971C664.15 349.965 655.981 367.459 640.573 383.698C625.164 399.938 602.542 414.892 574.353 427.782C517.977 453.562 439.426 471.044 352.068 474.094C264.71 477.145 185.131 465.185 127.094 443.401C98.0744 432.509 74.4648 419.169 57.9603 404.043C41.4576 388.919 32.0873 372.037 31.4589 354.043C30.8306 336.05 39.0004 318.556 54.4079 302.317C69.8171 286.076 92.4387 271.123 120.628 258.232C177.004 232.453 255.554 214.971 342.913 211.921Z" stroke="url(#paint7_linear_102_3)"/>
<path d="M345.201 211.861C432.6 210.335 511.958 223.682 569.606 246.475C598.431 257.873 621.804 271.622 638.042 287.034C654.278 302.444 663.352 319.486 663.667 337.488C663.981 355.491 655.507 372.839 639.818 388.807C624.128 404.776 601.249 419.333 572.839 431.729C516.022 456.52 437.178 472.629 349.78 474.154C262.381 475.68 183.024 462.333 125.376 439.539C96.5505 428.142 73.1773 414.393 56.9393 398.981C40.703 383.571 31.6288 366.528 31.3146 348.526C31.0003 330.524 39.4743 313.176 55.1628 297.208C70.8531 281.239 93.7322 266.682 122.142 254.286C178.959 229.494 257.803 213.386 345.201 211.861Z" stroke="url(#paint8_linear_102_3)"/>
<path d="M347.491 211.841C434.902 211.841 514.015 226.571 571.256 250.367C599.878 262.265 623.008 276.421 638.975 292.114C654.939 307.805 663.715 325.003 663.715 343.008C663.715 361.012 654.939 378.21 638.975 393.902C623.008 409.594 599.878 423.75 571.256 435.648C514.015 459.444 434.902 474.174 347.491 474.174C260.079 474.174 180.966 459.444 123.725 435.648C95.1029 423.75 71.9732 409.594 56.0067 393.902C40.0419 378.21 31.2664 361.012 31.2664 343.008C31.2664 325.003 40.0419 307.805 56.0067 292.114C71.9732 276.421 95.1029 262.265 123.725 250.367C180.966 226.571 260.079 211.841 347.491 211.841Z" stroke="url(#paint9_linear_102_3)"/>
<path d="M349.78 211.861C437.178 213.387 516.022 229.495 572.839 254.286C601.249 266.683 624.128 281.239 639.818 297.209C655.507 313.176 663.981 330.525 663.667 348.527C663.352 366.529 654.278 383.571 638.042 398.981C621.804 414.393 598.431 428.143 569.606 439.54C511.958 462.333 432.6 475.68 345.201 474.155C257.803 472.629 178.959 456.521 122.142 431.729C93.7322 419.333 70.853 404.776 55.1628 388.807C39.4742 372.84 31.0003 355.491 31.3145 337.489C31.6288 319.487 40.703 302.445 56.9392 287.034C73.1773 271.623 96.5505 257.873 125.376 246.476C183.024 223.682 262.381 210.336 349.78 211.861Z" stroke="url(#paint10_linear_102_3)"/>
<path d="M352.068 211.921C439.426 214.971 517.977 232.453 574.353 258.232C602.542 271.123 625.164 286.077 640.573 302.317C655.981 318.556 664.15 336.05 663.522 354.044C662.894 372.037 653.523 388.919 637.021 404.043C620.516 419.169 596.907 432.509 567.887 443.401C509.85 465.185 430.271 477.145 342.913 474.094C255.555 471.044 177.004 453.562 120.628 427.783C92.4387 414.892 69.8171 399.938 54.408 383.698C39.0005 367.459 30.8306 349.965 31.459 331.971C32.0874 313.978 41.4576 297.096 57.9603 281.972C74.4648 266.846 98.0745 253.506 127.094 242.614C185.131 220.83 264.71 208.87 352.068 211.921Z" stroke="url(#paint11_linear_102_3)"/>
<path d="M354.355 212.02C441.647 216.595 519.881 235.445 575.798 262.205C603.758 275.585 626.115 290.931 641.239 307.438C656.36 323.943 664.224 341.577 663.281 359.557C662.339 377.537 652.676 394.253 635.911 409.087C619.145 423.923 595.307 436.848 566.101 447.232C507.693 468 427.918 478.569 340.626 473.994C253.334 469.42 175.1 450.57 119.183 423.81C91.2231 410.43 68.8659 395.084 53.7425 378.577C38.6208 362.071 30.7575 344.438 31.6998 326.458C32.6421 308.477 42.3055 291.762 59.0697 276.928C75.8357 262.092 99.6745 249.167 128.88 238.783C187.288 218.015 267.064 207.446 354.355 212.02Z" stroke="url(#paint12_linear_102_3)"/>
<path d="M356.64 212.16C443.839 218.258 521.732 238.47 577.174 266.201C604.896 280.067 626.982 295.802 641.815 312.57C656.646 329.337 664.2 347.105 662.944 365.066C661.688 383.027 651.735 399.571 634.714 414.11C617.692 428.651 593.631 441.159 564.249 451.032C505.487 470.777 425.539 479.952 338.341 473.855C251.142 467.757 173.25 447.544 117.807 419.813C90.0854 405.947 67.9995 390.213 53.1665 373.444C38.3351 356.678 30.7808 338.91 32.0367 320.949C33.2927 302.988 43.2464 286.444 60.2669 271.904C77.2892 257.363 101.35 244.856 130.732 234.983C189.494 215.238 269.442 206.063 356.64 212.16Z" stroke="url(#paint13_linear_102_3)"/>
<path d="M358.922 212.34C446.001 219.958 523.529 241.527 578.479 270.222C605.955 284.569 627.763 300.687 642.301 317.712C656.838 334.734 664.081 352.632 662.511 370.568C660.942 388.504 650.701 404.872 633.43 419.112C616.156 433.354 591.881 445.44 562.331 454.798C503.233 473.515 423.138 481.293 336.059 473.675C248.98 466.057 171.452 444.488 116.502 415.793C89.0261 401.445 67.2182 385.328 52.6801 368.303C38.1436 351.28 30.9005 333.383 32.4697 315.447C34.0389 297.51 44.2799 281.143 61.5515 266.903C78.825 252.661 103.1 240.575 132.65 231.217C191.748 212.5 271.844 204.721 358.922 212.34Z" stroke="url(#paint14_linear_102_3)"/>
<path d="M361.201 212.559C448.134 221.696 525.274 244.615 579.714 274.264C606.936 289.089 628.459 305.585 642.698 322.861C656.935 340.135 663.865 358.156 661.983 376.062C660.1 393.968 649.575 410.155 632.058 424.091C614.538 438.029 590.056 449.689 560.347 458.531C500.932 476.213 420.713 482.593 333.78 473.456C246.847 464.319 169.707 441.4 115.267 411.751C88.0457 396.926 66.5224 380.43 52.2836 363.155C38.0464 345.881 31.1168 327.859 32.9988 309.953C34.8808 292.047 45.4058 275.86 62.9234 261.924C80.4428 247.986 104.925 236.326 134.634 227.484C194.049 209.802 274.269 203.422 361.201 212.559Z" stroke="url(#paint15_linear_102_3)"/>
<path d="M363.476 212.818C450.236 223.471 526.964 247.733 580.879 278.327C607.837 293.625 629.069 310.494 643.004 328.016C656.938 345.535 663.552 363.675 661.358 381.545C659.163 399.416 648.357 415.416 630.599 429.045C612.839 442.675 588.157 453.906 558.298 462.228C498.584 478.871 418.265 483.849 331.505 473.196C244.745 462.544 168.017 438.282 114.103 407.687C87.1441 392.389 65.912 375.521 51.9769 357.999C38.0433 340.479 31.4293 322.34 33.6235 304.469C35.8177 286.599 46.6236 270.598 64.3818 256.97C82.1418 243.34 106.824 232.109 136.683 223.787C196.397 207.144 276.716 202.166 363.476 212.818Z" stroke="url(#paint16_linear_102_3)"/>
<path d="M365.745 213.117C452.306 225.283 528.599 250.88 581.972 282.411C608.659 298.177 629.594 315.413 643.221 333.176C656.847 350.936 663.143 369.188 660.637 387.017C658.132 404.847 647.048 420.656 629.055 433.973C611.06 447.291 586.185 458.09 556.186 465.889C496.19 481.487 415.797 485.063 329.236 472.898C242.675 460.732 166.382 435.136 113.009 403.605C86.322 387.838 65.3874 370.602 51.7603 352.84C38.1346 335.079 31.8381 316.827 34.3439 298.998C36.8497 281.168 47.9332 265.359 65.9265 252.042C83.9217 238.724 108.796 227.925 138.796 220.126C198.792 204.528 279.185 200.952 365.745 213.117Z" stroke="url(#paint17_linear_102_3)"/>
<path d="M368.01 213.456C454.345 227.13 530.18 254.054 582.994 286.512C609.402 302.741 630.032 320.341 643.347 338.338C656.661 356.334 662.638 374.693 659.821 392.476C657.005 410.259 645.647 425.872 627.424 438.873C609.199 451.875 584.14 462.238 554.009 469.512C493.75 484.061 413.307 486.234 326.972 472.559C240.636 458.885 164.802 431.961 111.987 399.503C85.5793 383.274 64.9488 365.674 51.6337 347.677C38.3201 329.681 32.3431 311.322 35.1597 293.539C37.9762 275.756 49.334 260.142 67.5569 247.142C85.7818 234.14 110.841 223.777 140.972 216.503C201.231 201.954 281.674 199.781 368.01 213.456Z" stroke="url(#paint18_linear_102_3)"/>
<path d="M370.268 213.833C456.351 229.012 531.704 257.256 583.944 290.631C610.065 307.318 630.385 325.275 643.384 343.502C656.381 361.727 662.037 380.188 658.911 397.919C655.784 415.65 644.156 431.063 625.709 443.744C607.26 456.426 582.023 466.35 551.77 473.097C491.266 486.592 410.797 487.36 324.714 472.181C238.63 457.003 163.277 428.759 111.037 395.384C84.9166 378.696 64.5963 360.74 51.5974 342.513C38.5998 324.288 32.9441 305.827 36.0706 288.096C39.1971 270.364 50.8256 254.951 69.2727 242.271C87.7217 229.589 112.958 219.665 143.211 212.918C203.715 199.423 284.184 198.655 370.268 213.833Z" stroke="url(#paint19_linear_102_3)"/>
<path d="M372.518 214.251C458.324 230.93 533.173 260.484 584.822 294.766C610.648 311.907 630.651 330.215 643.33 348.666C656.008 367.116 661.34 385.672 657.905 403.346C654.469 421.02 642.574 436.228 623.908 448.584C605.241 460.942 579.835 470.424 549.469 476.643C488.738 489.08 408.268 488.443 322.463 471.765C236.657 455.086 161.808 425.531 110.159 391.25C84.3336 374.109 64.3298 355.8 51.651 337.349C38.9735 318.9 33.6409 300.343 37.0763 282.669C40.5118 264.995 52.4075 249.788 71.0731 237.431C89.7406 225.073 115.146 215.591 145.513 209.372C206.243 196.936 286.713 197.572 372.518 214.251Z" stroke="url(#paint20_linear_102_3)"/>
<path d="M374.762 214.707C460.263 232.881 534.585 263.737 585.628 298.915C611.15 316.504 630.831 335.159 643.186 353.828C655.54 372.496 660.548 391.143 656.805 408.754C653.061 426.365 640.902 441.363 622.023 453.392C603.143 465.423 577.576 474.46 547.106 480.147C486.168 491.522 405.721 489.482 320.22 471.308C234.718 453.134 160.397 422.277 109.353 387.1C83.831 369.511 64.1498 350.856 51.7949 332.186C39.4413 313.519 34.4333 294.872 38.1767 277.261C41.9201 259.649 54.0795 244.652 72.9578 232.623C91.8382 220.592 117.405 211.555 147.876 205.868C208.814 194.493 289.26 196.533 374.762 214.707Z" stroke="url(#paint21_linear_102_3)"/>
<path d="M376.997 215.203C462.168 234.866 535.94 267.015 586.361 303.078C611.573 321.11 630.925 340.105 642.952 358.988C654.978 377.868 659.66 396.599 655.61 414.142C651.56 431.686 639.141 446.469 620.055 458.167C600.968 469.866 575.247 478.455 544.682 483.61C483.554 493.92 403.156 490.476 317.985 470.812C232.813 451.149 159.042 419 108.62 382.938C83.4086 364.906 64.056 345.91 52.0287 327.028C40.0028 308.147 35.3211 289.416 39.3713 271.873C43.4215 254.329 55.8407 239.546 74.9261 227.848C94.0136 216.149 119.735 207.56 150.299 202.405C211.427 192.095 291.825 195.539 376.997 215.203Z" stroke="url(#paint22_linear_102_3)"/>
<path d="M379.223 215.737C464.038 236.884 537.237 270.315 587.022 307.252C611.915 325.722 630.933 345.052 642.629 364.142C654.323 383.229 658.677 402.039 654.322 419.509C649.966 436.979 637.291 451.543 618.004 462.906C598.715 474.27 572.848 482.409 542.198 487.03C480.9 496.272 400.574 491.425 315.759 470.278C230.943 449.131 157.744 415.7 107.96 378.763C83.0666 360.293 64.0485 340.963 52.3527 321.873C40.6581 302.786 36.3039 283.976 40.6597 266.506C45.0154 249.036 57.6908 234.472 76.9774 223.109C96.2662 211.745 122.133 203.605 152.783 198.985C214.081 189.743 294.408 194.59 379.223 215.737Z" stroke="url(#paint23_linear_102_3)"/>
<path d="M381.439 216.31C465.872 238.934 538.477 273.638 587.609 311.438C612.176 330.339 630.854 349.999 642.215 369.289C653.575 388.578 657.6 407.461 652.94 424.852C648.28 442.244 635.352 456.585 615.87 467.609C596.386 478.635 570.381 486.321 539.655 490.407C478.205 498.577 397.975 492.329 313.542 469.705C229.109 447.081 156.504 412.377 107.372 374.577C82.8052 355.676 64.1273 336.016 52.7664 316.726C41.4068 297.437 37.3816 278.554 42.0415 261.163C46.7015 243.771 59.6291 229.431 79.1111 218.406C98.5953 207.38 124.6 199.694 155.327 195.609C216.776 187.438 297.006 193.686 381.439 216.31Z" stroke="url(#paint24_linear_102_3)"/>
<path d="M383.645 216.922C467.67 241.016 539.658 276.982 588.123 315.634C612.357 334.961 630.689 354.943 641.711 374.429C652.732 393.913 656.427 412.863 651.465 430.171C646.502 447.478 633.326 461.591 613.655 472.274C593.981 482.958 567.846 490.189 537.053 493.738C475.47 500.834 395.361 493.187 311.336 469.093C227.311 444.999 155.323 409.033 106.858 370.381C82.6244 351.054 64.2924 331.072 53.2699 311.586C42.2486 292.102 38.5536 273.152 43.5164 255.844C48.4792 238.537 61.6551 224.424 81.3265 213.741C101 203.057 127.136 195.826 157.928 192.277C219.511 185.181 299.62 192.828 383.645 216.922Z" stroke="url(#paint25_linear_102_3)"/>
<path d="M385.84 217.572C469.432 243.129 540.781 280.346 588.564 319.838C612.457 339.584 630.437 359.884 641.118 379.559C651.798 399.232 655.161 418.245 649.897 435.463C644.633 452.681 631.213 466.562 611.358 476.9C591.501 487.239 565.243 494.013 534.393 497.023C472.696 503.044 392.733 494 309.141 468.443C225.549 442.886 154.2 405.67 106.417 366.178C82.5242 346.431 64.5438 326.132 53.8631 306.456C43.1835 286.783 39.8198 267.771 45.0839 250.553C50.348 233.335 63.7682 219.454 83.6231 209.116C103.48 198.777 129.738 192.002 160.588 188.992C222.285 182.972 302.248 192.016 385.84 217.572Z" stroke="url(#paint26_linear_102_3)"/>
<path d="M388.023 218.26C471.157 245.272 541.846 283.728 588.932 324.048C612.476 344.209 630.1 364.819 640.435 384.678C650.77 404.534 653.801 423.602 648.238 440.726C642.674 457.85 629.013 471.494 608.981 481.484C588.947 491.475 562.575 497.79 531.677 500.261C469.884 505.204 390.091 494.766 306.958 467.754C223.824 440.743 153.135 402.286 106.049 361.966C82.5049 341.806 64.8815 321.196 54.5458 301.337C44.2111 281.48 41.1797 262.412 46.7435 245.289C52.3073 228.165 65.9677 214.52 86 204.531C106.034 194.54 132.406 188.225 163.304 185.753C225.097 180.81 304.89 191.249 388.023 218.26Z" stroke="url(#paint27_linear_102_3)"/>
<path d="M390.194 218.987C472.844 247.445 542.851 287.129 589.226 328.265C612.415 348.834 629.676 369.748 639.664 389.784C649.65 409.818 652.348 428.936 646.486 445.96C640.625 462.984 626.728 476.388 606.525 486.027C586.319 495.666 559.841 501.52 528.904 503.452C467.034 507.316 387.436 495.486 304.787 467.028C222.138 438.57 152.131 398.886 105.755 357.75C82.5663 337.181 65.3053 316.267 55.3177 296.231C45.3312 276.197 42.633 257.079 48.4948 240.055C54.3566 223.031 68.2531 209.627 88.4566 199.988C108.662 190.349 135.141 184.495 166.077 182.563C227.947 178.699 307.545 190.528 390.194 218.987Z" stroke="url(#paint28_linear_102_3)"/>
<path d="M392.352 219.751C474.492 249.648 543.796 290.548 589.447 332.486C612.273 353.456 629.166 374.669 638.803 394.876C648.438 415.082 650.802 434.244 644.644 451.163C638.486 468.082 624.358 481.241 603.989 490.526C583.618 499.811 557.042 505.202 526.077 506.594C464.149 509.377 384.769 496.161 302.629 466.264C220.489 436.368 151.185 395.468 105.534 353.529C82.7083 332.559 65.8149 311.346 56.1785 291.139C46.5432 270.934 44.1791 251.772 50.3371 234.853C56.4951 217.934 70.6233 204.774 90.9921 195.49C111.363 186.204 137.939 180.813 168.904 179.421C230.833 176.638 310.212 189.855 392.352 219.751Z" stroke="url(#paint29_linear_102_3)"/>
<path d="M394.497 220.553C476.102 251.878 544.682 293.981 589.593 336.71C612.05 358.076 628.571 379.58 637.853 399.952C647.134 420.323 649.164 439.523 642.711 456.332C636.259 473.141 621.903 486.052 601.375 494.98C580.846 503.908 554.179 508.835 523.194 509.686C461.227 511.388 382.09 496.788 300.485 465.462C218.879 434.137 150.299 392.034 105.388 349.305C82.9309 327.939 66.4103 306.435 57.1281 286.063C47.8468 265.692 45.8175 246.492 52.2699 229.683C58.7222 212.874 73.078 199.963 93.6057 191.035C114.136 182.107 140.802 177.181 171.787 176.329C233.754 174.627 312.891 189.227 394.497 220.553Z" stroke="url(#paint30_linear_102_3)"/>
<path d="M396.626 221.392C477.673 254.137 545.507 297.43 589.666 340.937C611.747 362.691 627.89 384.48 636.815 405.011C645.739 425.54 647.433 444.773 640.688 461.467C633.944 478.161 619.365 490.819 598.684 499.388C578.002 507.957 551.254 512.417 520.259 512.727C458.271 513.347 379.401 497.368 298.355 464.623C217.308 431.878 149.474 388.585 105.315 345.078C83.2342 323.324 67.0914 301.535 58.1661 281.004C49.2418 260.475 47.5479 241.242 54.2926 224.548C61.0373 207.854 75.6163 195.196 96.2966 186.628C116.979 178.059 143.727 173.599 174.722 173.288C236.71 172.668 315.58 188.647 396.626 221.392Z" stroke="url(#paint31_linear_102_3)"/>
<path d="M398.742 222.268C479.204 256.422 546.273 300.893 589.666 345.164C611.363 367.3 627.123 389.367 635.689 410.051C644.254 430.733 645.611 449.993 638.576 466.566C631.541 483.14 616.744 495.542 595.917 503.748C575.088 511.955 548.266 515.947 517.271 515.716C455.282 515.255 376.702 497.902 296.24 463.747C215.777 429.593 148.709 385.122 105.315 340.852C83.618 318.716 67.8579 296.648 59.2923 275.964C50.7277 255.282 49.3697 236.023 56.4047 219.449C63.4398 202.876 78.2374 190.473 99.0641 182.268C119.893 174.061 146.715 170.068 177.711 170.299C239.7 170.761 318.279 188.114 398.742 222.268Z" stroke="url(#paint32_linear_102_3)"/>
<path d="M400.841 223.181C480.695 258.734 546.977 304.369 589.591 349.39C610.899 371.901 626.272 394.24 634.475 415.071C642.677 435.899 643.699 455.179 636.376 471.627C629.052 488.076 614.041 500.218 593.074 508.059C572.105 515.901 545.217 519.425 514.23 518.653C452.259 517.109 373.995 498.388 294.14 462.834C214.286 427.281 148.004 381.646 105.39 336.625C84.0821 314.114 68.7096 291.775 60.5063 270.944C52.3038 250.116 51.2822 230.836 58.6054 214.388C65.9286 197.939 80.9404 185.797 101.907 177.956C122.876 170.114 149.764 166.59 180.751 167.362C242.722 168.906 320.986 187.627 400.841 223.181Z" stroke="url(#paint33_linear_102_3)"/>
<path d="M402.924 224.13C482.146 261.071 547.621 307.856 589.443 353.614C610.355 376.493 625.335 399.098 633.173 420.068C641.011 441.036 641.696 460.331 634.087 476.649C626.478 492.967 611.256 504.845 590.156 512.319C569.053 519.794 542.108 522.848 511.14 521.536C449.205 518.911 371.279 498.826 292.057 461.885C212.835 424.943 147.36 378.159 105.538 332.401C84.6265 309.521 69.6462 286.917 61.8077 265.946C53.97 244.978 53.285 225.683 60.8941 209.365C68.5033 193.047 83.7247 181.169 104.825 173.695C125.928 166.22 152.873 163.166 183.841 164.479C245.776 167.103 323.702 187.188 402.924 224.13Z" stroke="url(#paint34_linear_102_3)"/>
<path d="M404.99 225.116C483.555 263.434 548.204 311.354 589.221 357.835C609.73 381.076 624.314 403.938 631.785 425.042C639.256 446.144 639.604 465.448 631.711 481.631C623.818 497.814 608.392 509.424 587.164 516.529C565.934 523.634 538.94 526.218 507.999 524.365C446.119 520.66 368.556 499.218 289.991 460.899C211.426 422.581 146.777 374.661 105.76 328.18C85.2509 304.939 70.6674 282.077 63.1961 260.973C55.7255 239.871 55.3774 220.567 63.2702 204.384C71.163 188.201 86.5894 176.591 107.817 169.486C129.047 162.381 156.041 159.797 186.982 161.65C248.862 165.355 326.425 186.797 404.99 225.116Z" stroke="url(#paint35_linear_102_3)"/>
<path d="M407.039 226.137C484.923 265.821 548.726 314.862 588.925 362.052C609.026 385.647 623.208 408.761 630.31 429.992C637.411 451.221 637.422 470.528 629.248 486.57C621.074 502.613 605.448 513.953 584.099 520.686C562.748 527.419 535.713 529.531 504.809 527.139C443.004 522.354 365.826 499.562 287.942 459.878C210.058 420.194 146.255 371.153 106.056 323.964C85.9552 300.368 71.7729 277.255 64.671 256.024C57.5699 234.795 57.5587 215.487 65.7327 199.445C73.9067 183.403 89.5335 172.063 110.882 165.33C132.233 158.596 159.268 156.484 190.172 158.877C251.977 163.661 329.155 186.453 407.039 226.137Z" stroke="url(#paint36_linear_102_3)"/>
<path d="M409.07 227.194C486.249 268.231 549.187 318.378 588.556 366.262C608.242 390.205 622.019 413.562 628.749 434.914C635.478 456.264 635.153 475.568 626.7 491.466C618.247 507.363 602.425 518.428 580.962 524.788C559.497 531.148 532.429 532.788 501.572 529.856C439.859 523.994 363.091 499.858 285.911 458.821C208.732 417.784 145.794 367.637 106.425 319.753C86.7393 295.81 72.9625 272.453 66.2322 251.101C59.5027 229.751 59.8285 210.447 68.2812 194.549C76.7339 178.652 92.5562 167.587 114.019 161.227C135.484 154.867 162.552 153.227 193.409 156.159C255.122 162.021 331.89 186.157 409.07 227.194Z" stroke="url(#paint37_linear_102_3)"/>
<path d="M411.081 228.286C487.533 270.664 549.586 321.902 588.114 370.466C607.378 394.748 620.745 418.343 627.102 439.809C633.458 461.272 632.795 480.568 624.066 496.316C615.338 512.063 599.325 522.851 577.754 528.834C556.181 534.819 529.089 535.986 498.287 532.517C436.686 525.578 360.352 500.106 283.9 457.728C207.448 415.35 145.395 364.113 106.867 315.549C87.6027 291.266 74.2357 267.672 67.879 246.206C61.5231 224.742 62.1858 205.446 70.9147 189.699C79.6436 173.951 95.6565 163.164 117.227 157.18C138.8 151.196 165.892 150.029 196.694 153.498C258.295 160.437 334.63 185.908 411.081 228.286Z" stroke="url(#paint38_linear_102_3)"/>
<path d="M413.074 229.414C488.775 273.12 549.923 325.433 587.598 374.661C606.436 399.277 619.389 423.1 625.37 444.674C631.35 466.245 630.351 485.527 621.349 501.12C612.346 516.712 596.148 527.219 574.476 532.825C552.802 538.432 525.694 539.126 494.957 535.12C433.487 527.107 357.608 500.307 281.907 456.601C206.207 412.896 145.058 360.583 107.383 311.354C88.5453 286.739 75.5921 262.915 69.6111 241.341C63.6307 219.77 64.6301 200.488 73.6325 184.896C82.6348 169.303 98.8336 158.797 120.505 153.19C142.179 147.583 169.288 146.889 200.024 150.895C261.495 158.908 337.373 185.708 413.074 229.414Z" stroke="url(#paint39_linear_102_3)"/>
<path d="M415.047 230.576C489.973 275.596 550.199 328.968 587.009 378.847C605.414 403.787 617.95 427.833 623.553 449.508C629.156 471.181 627.821 490.442 618.548 505.875C609.274 521.308 592.895 531.53 571.129 536.758C549.36 541.986 522.244 542.206 491.582 537.664C430.261 528.58 354.861 500.46 279.935 455.439C205.008 410.419 144.782 357.047 107.972 307.168C89.5668 282.228 77.0314 258.182 71.4278 236.507C65.8248 214.834 67.1605 195.573 76.4336 180.14C85.7068 164.707 102.086 154.485 123.853 149.257C145.621 144.029 172.738 143.809 203.399 148.351C264.721 157.435 340.12 185.555 415.047 230.576Z" stroke="url(#paint40_linear_102_3)"/>
<path d="M416.998 231.771C491.128 278.092 550.413 332.508 586.347 383.021C604.314 408.279 616.428 432.54 621.653 454.309C626.877 476.076 625.205 495.311 615.664 510.58C606.123 525.849 589.567 535.784 567.713 540.631C545.857 545.478 518.741 545.226 488.163 540.149C427.009 529.996 352.112 500.564 277.983 454.243C203.854 407.922 144.568 353.507 108.634 302.993C90.6669 277.735 78.553 253.474 73.3285 231.705C68.1046 209.938 69.7763 190.703 79.3174 175.434C88.8584 160.165 105.414 150.23 127.268 145.384C149.124 140.536 176.241 140.789 206.819 145.865C267.972 156.019 342.869 185.45 416.998 231.771Z" stroke="url(#paint41_linear_102_3)"/>
<path d="M418.929 233.002C492.239 280.609 550.566 336.051 585.612 387.184C603.136 412.751 614.825 437.22 619.668 459.078C624.512 480.932 622.505 500.135 612.698 515.235C602.892 530.336 586.166 539.98 564.231 544.444C542.293 548.909 515.185 548.184 484.701 542.574C423.734 531.355 349.362 500.621 276.052 453.013C202.743 405.405 144.415 349.964 109.369 298.831C91.8451 273.263 80.1565 248.794 75.3127 226.937C70.4695 205.082 72.4766 185.879 82.2827 170.779C92.0888 155.679 108.815 146.035 130.751 141.571C152.688 137.105 179.796 137.831 210.281 143.441C271.247 154.66 345.62 185.394 418.929 233.002Z" stroke="url(#paint42_linear_102_3)"/>
<path d="M420.838 234.265C493.306 283.145 550.656 339.596 584.805 391.333C601.88 417.202 613.14 441.871 617.601 463.81C622.062 485.746 619.72 504.911 609.652 519.837C599.584 534.764 582.692 544.115 560.682 548.196C538.67 552.278 511.579 551.079 481.197 544.938C420.435 532.657 346.611 500.629 274.143 451.749C201.676 402.869 144.325 346.418 110.176 294.682C93.1012 268.812 81.8414 244.143 77.3798 222.205C72.9188 200.269 75.2607 181.104 85.3288 166.177C95.397 151.25 112.289 141.899 134.299 137.818C156.311 133.737 183.402 134.935 213.784 141.076C274.546 153.357 348.371 185.385 420.838 234.265Z" stroke="url(#paint43_linear_102_3)"/>
<path d="M422.725 235.562C494.328 285.699 550.685 343.142 583.925 395.467C600.546 421.631 611.374 446.493 615.452 468.506C619.529 490.516 616.853 509.637 606.526 524.386C596.199 539.135 579.146 548.189 557.069 551.885C534.989 555.582 507.923 553.911 477.652 547.241C417.114 533.901 343.86 500.59 272.256 450.453C200.653 400.315 144.296 342.872 111.056 290.547C94.4349 264.384 83.6073 239.522 79.5293 217.509C75.4518 195.498 78.1278 176.377 88.4549 161.628C98.7821 146.88 115.835 137.825 137.913 134.129C159.993 130.432 187.059 132.103 217.329 138.773C277.867 152.113 351.121 185.424 422.725 235.562Z" stroke="url(#paint44_linear_102_3)"/>
<path d="M424.588 236.892C495.306 288.271 550.652 346.689 582.974 399.586C599.136 426.036 609.528 451.083 613.221 473.163C616.914 495.242 613.904 514.313 603.321 528.88C592.738 543.446 575.53 552.201 553.391 555.512C531.25 558.823 504.217 556.679 474.068 549.482C413.772 535.088 341.11 500.503 270.393 449.124C199.675 397.745 144.33 339.326 112.007 286.429C95.8456 259.98 85.4536 234.933 81.7604 212.852C78.0676 190.774 81.0769 171.702 91.6599 157.136C102.243 142.57 119.451 133.814 141.59 130.504C163.731 127.193 190.764 129.336 220.913 136.533C281.209 150.928 353.871 185.512 424.588 236.892Z" stroke="url(#paint45_linear_102_3)"/>
<path d="M426.429 238.253C496.239 290.859 550.556 350.234 581.951 403.687C597.648 430.415 607.602 455.639 610.909 477.781C614.216 499.921 610.874 518.937 600.038 533.316C589.203 547.695 571.844 556.149 549.651 559.073C527.455 561.997 500.464 559.382 470.445 551.659C410.409 536.215 338.362 500.368 268.552 447.762C198.742 395.156 144.425 335.781 113.031 282.328C97.3329 255.601 87.3796 230.376 84.0724 208.234C80.7655 186.095 84.1072 167.078 94.9427 152.699C105.778 138.32 123.137 129.866 145.33 126.942C167.526 124.018 194.517 126.633 224.536 134.356C284.572 149.8 356.619 185.648 426.429 238.253Z" stroke="url(#paint46_linear_102_3)"/>
<path d="M428.245 239.647C497.126 293.463 550.399 353.777 580.856 407.77C596.085 434.767 605.596 460.162 608.517 482.358C611.437 504.552 607.763 523.507 596.679 537.695C585.594 551.883 568.09 560.032 545.85 562.568C523.606 565.104 496.665 562.019 466.785 553.774C407.028 537.284 335.617 500.184 266.736 446.368C197.855 392.552 144.582 332.238 114.125 278.246C98.8964 251.248 89.3849 225.853 86.4646 203.657C83.5446 181.464 87.2176 162.509 98.3025 148.321C109.387 134.133 126.891 125.983 149.132 123.447C171.375 120.911 198.316 123.996 228.196 132.242C287.953 148.731 359.364 185.831 428.245 239.647Z" stroke="url(#paint47_linear_102_3)"/>
<path d="M430.037 241.072C497.968 296.082 550.181 357.316 579.69 411.832C594.445 439.092 603.512 464.648 606.045 486.892C608.577 509.133 604.574 528.021 593.243 542.014C581.912 556.006 564.269 563.849 541.988 565.996C519.703 568.144 492.82 564.589 463.089 555.823C403.628 538.293 332.876 499.953 264.945 444.943C197.013 389.933 144.801 328.699 115.291 274.182C100.536 246.923 91.4689 221.366 88.9364 199.123C86.4042 176.881 90.4075 157.993 101.738 144.001C113.069 130.009 130.712 122.166 152.994 120.019C175.278 117.871 202.161 121.426 231.893 130.192C291.353 147.722 362.105 186.062 430.037 241.072Z" stroke="url(#paint48_linear_102_3)"/>
<path d="M431.803 242.528C498.764 298.715 549.9 360.852 578.454 415.875C592.731 443.387 601.35 469.099 603.494 491.383C605.638 513.665 601.306 532.48 589.732 546.273C578.159 560.065 560.382 567.599 538.066 569.357C515.748 571.116 488.931 567.092 459.357 557.809C400.212 539.244 330.139 499.675 263.178 443.488C196.217 387.3 145.081 325.164 116.528 270.141C102.25 242.628 93.6308 216.917 91.4869 194.633C89.3433 172.351 93.6756 153.535 105.249 139.743C116.822 125.951 134.599 118.417 156.915 116.659C179.233 114.9 206.051 118.924 235.624 128.207C294.77 146.772 364.842 186.341 431.803 242.528Z" stroke="url(#paint49_linear_102_3)"/>
<path d="M433.544 244.015C499.514 301.362 549.558 364.382 577.147 419.894C590.942 447.652 599.111 473.51 600.866 495.828C602.62 518.144 597.96 536.881 586.148 550.469C574.336 564.058 556.43 571.28 534.087 572.649C511.741 574.017 484.998 569.526 455.591 559.728C396.779 540.134 327.408 499.348 261.437 442.001C195.467 384.653 145.424 321.634 117.835 266.121C104.039 238.363 95.87 212.506 94.1154 190.187C92.3609 167.871 97.021 149.134 108.833 135.546C120.645 121.958 138.551 114.735 160.894 113.367C183.24 111.998 209.983 116.49 239.39 126.287C298.202 145.882 367.573 186.668 433.544 244.015Z" stroke="url(#paint50_linear_102_3)"/>
<path d="M435.258 245.532C500.218 304.022 549.154 367.905 575.77 423.891C589.078 451.885 596.795 477.881 598.16 500.227C599.525 522.57 594.538 541.223 582.491 554.603C570.443 567.983 552.414 574.892 530.051 575.87C507.685 576.848 481.024 571.891 451.792 561.582C393.331 540.964 324.682 498.973 259.723 440.484C194.763 381.994 145.827 318.11 119.211 262.125C105.903 234.131 98.1859 208.134 96.821 185.788C95.4563 163.445 100.443 144.793 112.49 131.412C124.538 118.032 142.567 111.123 164.931 110.145C187.297 109.167 213.957 114.124 243.189 124.434C301.65 145.052 370.299 187.042 435.258 245.532Z" stroke="url(#paint51_linear_102_3)"/>
<path d="M436.946 247.078C500.875 306.693 548.689 371.421 574.323 427.863C587.141 456.085 594.403 482.212 595.378 504.578C596.353 526.942 591.042 545.504 578.762 558.672C566.483 571.84 548.336 578.433 525.959 579.021C503.579 579.609 477.009 574.187 447.962 563.369C389.869 541.734 321.964 498.552 258.035 438.937C194.106 379.322 146.293 314.595 120.658 258.153C107.84 229.931 100.578 203.804 99.6031 181.438C98.6285 159.074 103.94 140.511 116.219 127.343C128.498 114.176 146.645 107.582 169.022 106.995C191.402 106.407 217.972 111.829 247.019 122.647C305.112 144.282 373.017 187.464 436.946 247.078Z" stroke="url(#paint52_linear_102_3)"/>
<path d="M438.607 248.654C501.485 309.375 548.162 374.927 572.808 431.808C585.131 460.25 591.936 486.499 592.52 508.879C593.105 531.257 587.47 549.724 574.963 562.675C562.456 575.627 544.197 581.902 521.813 582.099C499.426 582.297 472.955 576.412 444.101 565.089C386.394 542.443 319.253 498.082 256.374 437.361C193.496 376.64 146.819 311.088 122.173 254.207C109.85 225.765 103.045 199.516 102.461 177.136C101.876 154.758 107.511 136.291 120.018 123.34C132.525 110.388 150.784 104.113 173.169 103.916C195.555 103.718 222.026 109.603 250.881 120.926C308.587 143.572 375.728 187.933 438.607 248.654Z" stroke="url(#paint53_linear_102_3)"/>
<path d="M440.239 250.259C502.049 312.068 547.574 378.425 571.224 435.727C583.049 464.379 589.395 490.744 589.588 513.13C589.782 535.515 583.826 553.881 571.095 566.612C558.364 579.343 539.998 585.299 517.613 585.105C495.227 584.912 468.862 578.566 440.21 566.741C382.908 543.092 316.551 497.566 254.742 435.757C192.932 373.947 147.407 307.59 123.757 250.288C111.932 221.636 105.586 195.272 105.393 172.885C105.199 150.501 111.155 132.135 123.886 119.403C136.618 106.672 154.984 100.716 177.368 100.91C199.754 101.103 226.119 107.449 254.771 119.274C312.073 142.924 378.43 188.449 440.239 250.259Z" stroke="url(#paint54_linear_102_3)"/>
<path d="M441.844 251.892C502.565 314.77 546.926 381.912 569.572 439.618C580.895 468.472 586.78 494.943 586.582 517.33C586.385 539.714 580.11 557.973 567.158 570.48C554.207 582.988 535.74 588.622 513.362 588.038C490.982 587.454 464.733 580.649 436.291 568.325C379.41 543.679 313.858 497.002 253.137 434.124C192.416 371.245 148.055 304.104 125.41 246.398C114.086 217.544 108.201 191.072 108.399 168.686C108.596 146.302 114.871 128.042 127.823 115.535C140.774 103.028 159.242 97.3937 181.619 97.9778C203.999 98.562 230.248 105.367 258.69 117.69C315.571 142.336 381.123 189.013 441.844 251.892Z" stroke="url(#paint55_linear_102_3)"/>
<path d="M443.42 253.552C503.034 317.481 546.217 385.386 567.852 443.479C578.67 472.526 584.092 499.096 583.504 521.476C582.916 543.853 576.323 562 563.155 574.28C549.987 586.559 531.424 591.87 509.061 590.895C486.694 589.921 460.567 582.659 432.345 569.841C375.904 544.206 311.176 496.392 251.561 432.463C191.947 368.535 148.765 300.629 127.13 242.537C116.311 213.489 110.89 186.919 111.478 164.54C112.065 142.162 118.658 124.015 131.826 111.736C144.994 99.4569 163.557 94.1458 185.921 95.1204C208.287 96.095 234.414 103.357 262.636 116.175C319.078 141.81 383.805 189.624 443.42 253.552Z" stroke="url(#paint56_linear_102_3)"/>
<path d="M444.967 255.24C503.456 320.199 545.447 388.848 566.065 447.309C576.374 476.541 581.331 503.201 580.353 525.567C579.375 547.931 572.466 565.96 559.086 578.008C545.706 590.055 527.053 595.042 504.71 593.677C482.364 592.312 456.368 584.595 428.374 571.287C372.388 544.671 308.504 495.735 250.015 430.775C191.525 365.816 149.535 297.167 128.917 238.706C118.607 209.474 113.65 182.814 114.628 160.447C115.606 138.084 122.515 120.055 135.895 108.007C149.276 95.9595 167.928 90.9732 190.271 92.3379C212.617 93.7028 238.613 101.42 266.608 114.728C322.593 141.344 386.477 190.28 444.967 255.24Z" stroke="url(#paint57_linear_102_3)"/>
<path d="M446.483 256.955C503.831 322.925 544.616 392.296 564.211 451.108C574.009 480.516 578.5 507.258 577.131 529.604C575.763 551.947 568.541 569.853 554.952 581.665C541.364 593.477 522.627 598.138 500.311 596.383C477.992 594.628 452.135 586.459 424.377 572.664C368.864 545.075 305.845 495.031 248.498 429.061C191.151 363.091 150.365 293.72 130.77 234.907C120.972 205.5 116.481 178.757 117.85 156.412C119.218 134.068 126.44 116.163 140.029 104.35C153.617 92.5382 172.354 87.8782 194.67 89.6326C216.989 91.3873 242.846 99.5567 270.604 113.352C326.117 140.941 389.136 190.984 446.483 256.955Z" stroke="url(#paint58_linear_102_3)"/>
<path d="M447.97 258.695C504.157 325.656 543.726 395.729 562.291 454.874C571.574 484.448 575.598 511.265 573.84 533.583C572.082 555.899 564.548 573.676 550.756 585.249C536.963 596.823 518.148 601.155 495.866 599.011C473.581 596.867 447.87 588.248 420.358 573.971C365.335 545.417 303.198 494.281 247.011 427.32C190.824 360.359 151.255 290.287 132.69 231.141C123.407 201.568 119.383 174.75 121.141 152.432C122.899 130.116 130.433 112.339 144.226 100.766C158.018 89.1926 176.833 84.8602 199.115 87.0039C221.4 89.1478 247.111 97.7673 274.624 112.045C329.646 140.598 391.783 191.734 447.97 258.695Z" stroke="url(#paint59_linear_102_3)"/>
<path d="M449.426 260.462C504.436 328.393 542.776 399.146 560.306 458.606C569.072 488.337 572.627 515.221 570.479 537.505C568.332 559.787 560.489 577.429 546.497 588.76C532.505 600.091 513.617 604.094 491.375 601.562C469.131 599.03 443.575 589.963 416.316 575.207C361.799 545.698 300.565 493.485 245.555 425.554C190.545 357.622 152.205 286.87 134.675 227.41C125.909 197.679 122.354 170.795 124.502 148.511C126.649 126.229 134.492 108.586 148.484 97.2555C162.477 85.9248 181.365 81.9214 203.606 84.4537C225.85 86.9861 251.406 96.053 278.666 110.808C333.182 140.318 394.416 192.53 449.426 260.462Z" stroke="url(#paint60_linear_102_3)"/>
<path d="M450.851 262.254C504.667 331.135 541.767 402.545 558.257 462.302C566.502 492.182 569.587 519.124 567.051 541.367C564.515 563.608 556.366 581.111 542.178 592.196C527.99 603.281 509.035 606.954 486.841 604.034C464.645 601.114 439.25 591.602 412.253 576.373C358.26 545.917 297.946 492.644 244.13 423.762C190.314 354.881 153.214 283.471 136.725 223.713C128.479 193.834 125.394 166.892 127.93 144.649C130.466 122.408 138.616 104.905 152.804 93.8199C166.992 82.735 185.946 79.062 208.14 81.982C230.336 84.9023 255.731 94.4138 282.728 109.643C336.721 140.099 397.035 193.372 450.851 262.254Z" stroke="url(#paint61_linear_102_3)"/>
<path d="M452.245 264.07C504.851 333.88 540.698 405.927 556.142 465.962C563.865 495.982 566.48 522.973 563.556 545.168C560.632 567.362 552.178 584.72 537.799 595.555C523.42 606.391 504.404 609.733 482.264 606.426C460.122 603.119 434.898 593.165 408.17 577.468C354.717 546.073 295.342 491.756 242.736 421.946C190.131 352.136 154.283 280.089 138.839 220.053C131.116 190.034 128.501 163.043 131.425 140.847C134.349 118.654 142.803 101.295 157.182 90.4598C171.561 79.6243 190.578 76.2826 212.717 79.5895C234.859 82.8967 260.084 92.85 286.811 108.548C340.264 139.942 399.639 194.26 452.245 264.07Z" stroke="url(#paint62_linear_102_3)"/>
<path d="M453.607 265.91C504.986 336.627 539.571 409.289 553.965 469.585C561.162 499.735 563.306 526.767 559.995 548.908C556.684 571.047 547.929 588.256 533.363 598.838C518.796 609.421 499.725 612.431 477.646 608.738C455.566 605.045 430.519 594.653 404.069 578.491C351.172 546.169 292.754 490.823 241.374 420.106C189.995 349.388 155.411 276.726 141.016 216.43C133.819 186.281 131.676 159.248 134.987 137.107C138.297 114.968 147.053 97.76 161.619 87.177C176.185 76.5941 195.257 73.5848 217.335 77.2775C239.416 80.9707 264.463 91.3627 290.912 107.524C343.809 139.847 402.228 195.192 453.607 265.91Z" stroke="url(#paint63_linear_102_3)"/>
<path d="M454.936 267.774C505.073 339.377 538.385 412.631 551.724 473.169C558.394 503.44 560.066 530.506 556.369 552.586C552.672 574.664 543.618 591.716 528.869 602.043C514.121 612.371 494.999 615.047 472.989 610.969C450.976 606.891 426.114 596.064 399.951 579.443C347.626 546.202 290.182 489.845 240.045 418.242C189.908 346.639 156.597 273.384 143.257 212.846C136.587 182.576 134.916 155.51 138.612 133.43C142.309 111.352 151.363 94.2992 166.112 83.9721C180.861 73.645 199.982 70.969 221.992 75.0465C244.005 79.1245 268.867 89.952 295.031 106.573C347.356 139.814 404.799 196.17 454.936 267.774Z" stroke="url(#paint64_linear_102_3)"/>
<path d="M456.233 269.66C505.113 342.128 537.14 415.952 549.422 476.714C555.562 507.096 556.761 534.187 552.679 556.199C548.598 578.209 539.248 595.101 524.321 605.169C509.394 615.238 490.229 617.579 468.293 613.118C446.355 608.657 421.686 597.397 395.816 580.322C344.079 546.173 287.628 488.823 238.748 416.355C189.868 343.888 157.841 270.063 145.56 209.301C139.419 178.919 138.22 151.828 142.302 129.816C146.383 107.806 155.734 90.9141 170.66 80.846C185.587 70.7778 204.752 68.4359 226.688 72.897C248.626 77.3585 273.296 88.6183 299.165 105.693C350.902 139.842 407.353 197.193 456.233 269.66Z" stroke="url(#paint65_linear_102_3)"/>
<path d="M457.496 271.569C505.104 344.879 535.838 419.251 547.057 480.218C552.667 510.702 553.393 537.81 548.927 559.748C544.463 581.683 534.819 598.409 519.719 608.216C504.618 618.022 485.416 620.029 463.561 615.186C441.704 610.342 417.235 598.653 391.667 581.129C340.534 546.083 285.093 487.756 237.485 414.446C189.877 341.137 159.143 266.765 147.924 205.798C142.314 175.313 141.589 148.205 146.054 126.268C150.518 104.332 160.162 87.6059 175.263 77.7998C190.363 67.9937 209.566 65.9866 231.42 70.8298C253.278 75.6735 277.747 87.3622 303.314 104.886C354.447 139.932 409.889 198.26 457.496 271.569Z" stroke="url(#paint66_linear_102_3)"/>
<path d="M458.726 273.5C505.047 347.629 534.479 422.526 544.632 483.68C549.709 514.258 549.961 541.374 545.114 563.23C540.267 585.084 530.333 601.64 515.064 611.181C499.795 620.722 480.56 622.394 458.793 617.17C437.024 611.945 412.762 599.831 387.505 581.864C336.991 545.931 282.576 486.645 236.255 412.515C189.934 338.386 160.502 263.489 150.349 202.336C145.272 171.758 145.02 144.641 149.867 122.785C154.714 100.931 164.648 84.3755 179.917 74.8344C195.186 65.2933 214.421 63.6217 236.188 68.8456C257.958 74.07 282.219 86.1839 307.477 104.151C357.99 140.085 412.405 199.371 458.726 273.5Z" stroke="url(#paint67_linear_102_3)"/>
<path d="M459.922 275.452C504.943 350.378 533.063 425.778 542.147 487.099C546.689 517.761 546.469 544.877 541.241 566.646C536.013 588.412 525.791 604.791 510.358 614.065C494.925 623.338 475.664 624.673 453.991 619.07C432.316 613.467 408.27 600.931 383.33 582.526C333.451 545.716 280.079 485.49 235.059 410.564C190.038 335.637 161.918 260.238 152.834 198.916C148.292 168.255 148.513 141.138 153.741 119.37C158.968 97.6034 169.19 81.2238 184.623 71.9506C200.056 62.6775 219.318 61.3418 240.99 66.9448C262.665 72.5484 286.711 85.0838 311.651 103.489C361.53 140.299 414.902 200.525 459.922 275.452Z" stroke="url(#paint68_linear_102_3)"/>
<path d="M461.084 277.424C504.79 353.125 531.59 429.004 539.603 490.474C543.609 521.211 542.915 548.319 537.308 569.993C531.702 591.665 521.195 607.864 505.603 616.866C490.01 625.868 470.728 626.868 449.157 620.887C427.583 614.906 403.76 601.953 379.144 583.115C329.916 545.441 277.603 484.292 233.897 408.591C190.191 332.891 163.391 257.012 155.378 195.541C151.372 164.805 152.066 137.696 157.673 116.022C163.28 94.3508 173.786 78.1521 189.379 69.1497C204.971 60.1473 224.253 59.148 245.824 65.1283C267.398 71.1093 291.222 84.0626 315.837 102.901C365.066 140.575 417.379 201.724 461.084 277.424Z" stroke="url(#paint69_linear_102_3)"/>
<path d="M462.212 279.417C504.59 355.868 530.061 432.203 537 493.804C540.469 524.606 539.302 551.698 533.318 573.271C527.334 594.842 516.546 610.854 500.799 619.583C485.052 628.312 465.756 628.975 444.292 622.619C422.826 616.262 399.232 602.895 374.949 583.631C326.385 545.103 275.147 483.05 232.77 406.598C190.392 330.147 164.92 253.812 157.981 192.211C154.512 161.409 155.679 134.317 161.663 112.744C167.647 91.1735 178.435 75.1605 194.182 66.4316C209.929 57.7027 229.226 57.0401 250.689 63.396C272.155 69.7526 295.749 83.1197 320.032 102.384C368.596 140.912 419.834 202.965 462.212 279.417Z" stroke="url(#paint70_linear_102_3)"/>
<path d="M463.304 281.428C504.341 358.608 528.477 435.376 534.339 497.089C537.271 527.946 535.631 555.014 529.271 576.479C522.911 597.942 511.846 613.764 495.949 622.217C480.052 630.67 460.747 630.995 439.397 624.266C418.045 617.536 394.688 603.759 370.745 584.073C322.861 544.704 272.714 481.766 231.677 404.587C190.64 327.407 166.504 250.639 160.642 188.926C157.711 158.069 159.35 131.001 165.71 109.536C172.07 88.0731 183.135 72.2508 199.032 63.7981C214.93 55.3453 234.234 55.0196 255.584 61.7491C276.936 68.4794 300.293 82.2561 324.236 101.942C372.12 141.311 422.267 204.249 463.304 281.428Z" stroke="url(#paint71_linear_102_3)"/>
<path d="M464.361 283.459C504.045 361.343 526.837 438.521 531.622 500.326C534.014 531.231 531.902 558.266 525.168 579.616C518.435 600.965 507.096 616.591 491.053 624.765C475.011 632.939 455.703 632.928 434.475 625.827C413.244 618.725 390.13 604.543 366.535 584.443C319.345 544.243 270.304 480.44 230.62 402.556C190.936 324.672 168.144 247.494 163.36 185.689C160.967 154.785 163.079 127.75 169.813 106.399C176.546 85.0506 187.886 69.4239 203.928 61.2499C219.97 53.0759 239.278 53.0871 260.507 60.1882C281.738 67.2901 304.851 81.4724 328.447 101.573C375.636 141.772 424.677 205.575 464.361 283.459Z" stroke="url(#paint72_linear_102_3)"/>
<path d="M465.382 285.508C503.701 364.073 525.143 441.636 528.848 503.516C530.701 534.457 528.117 561.451 521.012 582.681C513.907 603.909 502.297 619.335 486.114 627.228C469.931 635.121 450.627 634.773 429.525 627.302C408.421 619.831 385.559 605.247 362.318 584.738C315.837 543.721 267.917 479.072 229.599 400.507C191.28 321.942 169.838 244.379 166.133 182.499C164.28 151.558 166.864 124.564 173.969 103.334C181.074 82.1063 192.684 66.6799 208.867 58.7871C225.05 50.8943 244.354 51.2425 265.456 58.713C286.56 66.1844 309.422 80.7679 332.663 101.277C379.144 142.294 427.064 206.943 465.382 285.508Z" stroke="url(#paint73_linear_102_3)"/>
<path d="M466.368 287.574C503.31 366.796 523.394 444.721 526.019 506.656C527.332 537.625 524.278 564.57 516.803 585.673C509.329 606.773 497.451 621.995 481.133 629.604C464.815 637.213 445.519 636.528 424.551 628.69C403.581 620.852 380.977 605.871 358.097 584.96C312.339 543.138 265.555 477.663 228.613 398.441C191.671 319.219 171.587 241.293 168.962 179.358C167.65 148.39 170.704 121.445 178.179 100.342C185.653 79.2415 197.531 64.0201 213.849 56.4109C230.166 48.8018 249.462 49.4868 270.43 57.3244C291.4 65.163 314.004 80.1433 336.884 101.055C382.642 142.877 429.426 208.352 466.368 287.574Z" stroke="url(#paint74_linear_102_3)"/>
<path d="M467.317 289.657C502.871 369.512 521.593 447.776 523.136 509.748C523.908 540.734 520.384 567.622 512.542 588.591C504.701 609.558 492.559 624.57 476.111 631.893C459.662 639.216 440.382 638.194 419.554 629.992C398.723 621.789 376.384 606.416 353.873 585.108C308.852 542.494 263.217 476.212 227.664 396.358C192.11 316.504 173.389 238.239 171.845 176.268C171.074 145.281 174.597 118.393 182.439 97.4244C190.28 76.4576 202.422 61.4458 218.871 54.1226C235.319 46.7993 254.599 47.821 275.427 56.0234C296.258 64.2267 318.597 79.5992 341.108 100.907C386.129 143.521 431.764 209.803 467.317 289.657Z" stroke="url(#paint75_linear_102_3)"/>
<path d="M468.23 291.757C502.385 372.219 519.738 450.799 520.199 512.787C520.43 543.783 516.437 570.605 508.231 591.434C500.025 612.261 487.623 627.058 471.049 634.093C454.476 641.128 435.216 639.77 414.534 631.206C393.85 622.64 371.783 606.88 349.647 585.183C305.376 541.79 260.905 474.721 226.751 394.258C192.596 313.796 175.244 235.216 174.782 173.228C174.551 142.232 178.544 115.41 186.751 94.5811C194.956 73.7543 207.358 58.9567 223.932 51.9217C240.505 44.8866 259.765 46.2446 280.447 54.8093C301.131 63.3749 323.198 79.1349 345.335 100.832C389.605 144.225 434.076 211.294 468.23 291.757Z" stroke="url(#paint76_linear_102_3)"/>
<path d="M469.106 293.872C501.851 374.919 517.83 453.789 517.21 515.776C516.9 546.771 512.44 573.52 503.871 594.202C495.302 614.883 482.644 629.461 465.95 636.206C449.257 642.951 430.023 641.257 409.494 632.333C388.963 623.407 367.174 607.265 345.42 585.184C301.913 541.025 258.62 473.191 225.875 392.144C193.13 311.098 177.151 232.227 177.771 170.24C178.082 139.245 182.542 112.497 191.111 91.8143C199.679 71.1339 212.337 56.555 229.031 49.8103C245.725 43.0656 264.958 44.7595 285.487 53.6838C306.018 62.6091 327.807 78.7518 349.561 100.832C393.068 144.991 436.361 212.826 469.106 293.872Z" stroke="url(#paint77_linear_102_3)"/>
<path d="M469.945 296.002C501.271 377.607 515.871 456.744 514.169 518.712C513.318 549.696 508.391 576.363 499.463 596.893C490.535 617.42 477.624 631.776 460.815 638.228C444.006 644.681 424.806 642.651 404.435 633.37C384.063 624.088 362.559 607.567 341.194 585.111C298.465 540.199 256.361 471.619 225.036 390.014C193.71 308.408 179.11 229.271 180.813 167.304C181.664 136.319 186.59 109.653 195.518 89.1228C204.446 68.5951 217.357 54.2394 234.166 47.787C250.975 41.3347 270.176 43.364 290.546 52.6452C310.918 61.9275 332.422 78.4481 353.788 100.905C396.517 145.816 438.62 214.396 469.945 296.002Z" stroke="url(#paint78_linear_102_3)"/>
<path d="M470.747 298.146C500.644 380.286 513.86 459.666 511.077 521.594C509.685 552.559 504.294 579.135 495.009 599.506C485.724 619.875 472.565 634.003 455.646 640.161C438.727 646.319 419.564 643.955 399.359 634.32C379.152 624.684 357.939 607.79 336.969 584.964C295.031 539.313 254.131 470.01 224.234 387.87C194.338 305.73 181.121 226.35 183.904 164.422C185.296 133.457 190.687 106.88 199.972 86.5094C209.257 66.1407 222.417 52.0124 239.336 45.8544C256.255 39.6964 275.417 42.0605 295.622 51.6958C315.829 61.3322 337.042 78.2256 358.012 101.052C399.951 146.702 440.851 216.006 470.747 298.146Z" stroke="url(#paint79_linear_102_3)"/>
<path d="M471.511 300.304C499.97 382.953 511.799 462.552 507.935 524.422C506.003 555.358 500.149 581.836 490.51 602.042C480.871 622.245 467.467 636.142 450.443 642.004C433.419 647.865 414.301 645.167 394.267 635.181C374.231 625.193 353.317 607.932 332.748 584.743C291.612 538.368 251.928 468.361 223.47 385.712C195.012 303.062 183.182 223.464 187.046 161.594C188.978 130.658 194.832 104.18 204.471 83.9739C214.11 63.7703 227.514 49.8738 244.538 44.012C261.562 38.1502 280.68 40.8484 300.714 50.8349C320.75 60.8225 341.665 78.0835 362.233 101.272C403.369 147.648 443.053 217.655 471.511 300.304Z" stroke="url(#paint80_linear_102_3)"/>
<path d="M472.238 302.475C499.249 385.609 509.688 465.401 504.745 527.194C502.273 558.092 495.958 584.464 485.967 604.499C475.977 624.531 462.333 638.191 445.209 643.755C428.086 649.319 409.018 646.287 389.161 635.953C369.302 625.617 348.692 607.994 328.531 584.449C288.211 537.363 249.755 466.674 222.744 383.541C195.732 300.407 185.294 220.615 190.237 158.822C192.708 127.924 199.023 101.552 209.014 81.5174C219.004 61.4851 232.648 47.8247 249.772 42.2609C266.896 36.6971 285.964 39.7285 305.82 50.0632C325.679 60.3989 346.289 78.0223 366.45 101.566C406.77 148.653 445.226 219.342 472.238 302.475Z" stroke="url(#paint81_linear_102_3)"/>
<path d="M472.926 304.659C498.483 388.251 507.527 468.213 501.506 529.911C498.496 560.761 491.722 587.019 481.383 606.876C471.045 626.73 457.164 640.151 439.946 645.415C422.728 650.679 403.715 647.315 384.042 636.636C364.367 625.955 344.067 607.974 324.321 584.082C284.829 536.299 247.612 464.95 222.055 381.358C196.499 297.765 187.454 217.803 193.475 156.105C196.485 125.255 203.26 98.9977 213.599 79.1406C223.937 59.2857 237.818 45.8655 255.036 40.6014C272.254 35.3373 291.266 38.7011 310.939 49.3806C330.615 60.0614 350.914 78.0418 370.661 101.934C410.153 149.717 447.369 221.067 472.926 304.659Z" stroke="url(#paint82_linear_102_3)"/>
<path d="M473.576 306.853C497.67 390.879 505.317 470.987 498.221 532.57C494.672 563.363 487.441 589.498 476.757 609.172C466.074 628.843 451.961 642.019 434.654 646.982C417.346 651.945 398.396 648.25 378.912 637.228C359.426 626.206 339.444 607.874 320.117 583.641C281.465 535.176 245.499 463.188 221.405 379.162C197.311 295.137 189.664 215.028 196.76 153.445C200.309 122.653 207.54 96.5173 218.224 76.8437C228.907 57.1723 243.02 43.9964 260.327 39.0336C277.635 34.0708 296.585 37.7658 316.069 48.7871C335.555 59.8096 355.538 78.1415 374.864 102.375C413.516 150.84 449.482 222.828 473.576 306.853Z" stroke="url(#paint83_linear_102_3)"/>
<path d="M474.188 309.059C496.812 393.492 503.06 473.722 494.89 535.172C490.804 565.898 483.118 591.903 472.092 611.387C461.068 630.869 446.727 643.797 429.335 648.457C411.944 653.117 393.061 649.092 373.772 637.732C354.482 626.371 334.822 607.693 315.921 583.126C278.121 533.994 243.417 461.389 220.793 376.956C198.169 292.523 191.922 212.294 200.092 150.844C204.177 120.118 211.863 94.1124 222.889 74.6282C233.914 55.1462 248.254 42.2186 265.646 37.5587C283.037 32.8987 301.92 36.9239 321.209 48.2835C340.499 59.6444 360.159 78.3223 379.06 102.889C416.86 152.021 451.564 224.626 474.188 309.059Z" stroke="url(#paint84_linear_102_3)"/>
<path d="M474.761 311.276C495.908 396.091 500.755 476.417 491.513 537.715C486.893 568.365 478.753 594.232 467.389 613.521C456.026 632.808 441.462 645.483 423.992 649.839C406.522 654.195 387.712 649.841 368.625 638.146C349.535 626.45 330.205 607.432 311.736 582.539C274.798 532.755 241.367 459.555 220.22 374.74C199.073 289.925 194.227 209.599 203.468 148.301C208.089 117.651 216.228 91.7835 227.592 72.4947C238.955 53.2081 253.519 40.5327 270.989 36.177C288.459 31.8212 307.269 36.1754 326.357 47.87C345.446 59.5658 364.776 78.5839 383.246 103.477C420.183 153.261 453.614 226.461 474.761 311.276Z" stroke="url(#paint85_linear_102_3)"/>
<path d="M475.296 313.502C494.959 398.673 498.403 479.072 488.093 540.199C482.938 570.764 474.349 596.485 462.65 615.572C450.952 634.658 436.169 647.077 418.626 651.127C401.082 655.177 382.351 650.496 363.471 638.47C344.588 626.442 325.593 607.09 307.561 581.878C271.498 531.457 239.349 457.685 219.686 372.514C200.022 287.343 196.578 206.944 206.888 145.817C212.043 115.252 220.632 89.5307 232.331 70.4432C244.029 51.3578 258.812 38.9386 276.356 34.8884C293.899 30.8382 312.63 35.52 331.511 47.5459C350.393 59.5731 369.389 78.9257 387.421 104.137C423.483 154.559 455.632 228.33 475.296 313.502Z" stroke="url(#paint86_linear_102_3)"/>
<path d="M475.791 315.736C493.965 401.238 496.005 481.684 484.631 542.622C478.943 573.092 469.906 598.66 457.875 617.54C445.846 636.418 430.849 648.578 413.237 652.321C395.626 656.065 376.979 651.057 358.312 638.703C339.642 626.348 320.987 606.667 303.398 581.144C268.221 530.101 237.364 455.78 219.19 370.278C201.016 284.777 198.976 204.33 210.351 143.392C216.038 112.922 225.076 87.3548 237.106 68.4744C249.135 49.5961 264.133 37.4368 281.744 33.6934C299.355 29.95 318.002 34.9579 336.67 47.3115C355.339 59.6664 373.994 79.3476 391.583 104.87C426.761 155.913 457.617 230.235 475.791 315.736Z" stroke="url(#paint87_linear_102_3)"/>
<path d="M476.247 317.98C492.926 403.785 493.563 484.255 481.126 544.986C474.907 575.352 465.425 600.758 453.067 619.425C440.711 638.091 425.503 649.986 407.829 653.422C390.155 656.857 371.598 651.525 353.149 638.847C334.698 626.168 316.39 606.165 299.248 580.339C264.967 528.69 235.413 453.841 218.734 368.035C202.055 282.23 201.419 201.76 213.855 141.03C220.074 110.663 229.556 85.2577 241.914 66.5902C254.271 47.9246 269.478 36.0289 287.152 32.5934C304.826 29.158 323.383 34.4906 341.832 47.1681C360.283 59.847 378.592 79.8507 395.733 105.676C430.014 157.326 459.569 232.174 476.247 317.98Z" stroke="url(#paint88_linear_102_3)"/>
<path d="M476.665 320.231C491.844 406.314 491.075 486.783 477.58 547.287C470.833 577.54 460.909 602.777 448.227 621.226C435.547 639.673 420.134 651.301 402.402 654.428C384.671 657.554 366.21 651.899 347.985 638.901C329.758 625.902 311.802 605.582 295.114 579.461C261.739 527.221 233.495 451.868 218.317 365.785C203.138 279.701 203.906 199.232 217.401 138.728C224.148 108.475 234.072 83.2388 246.754 64.7897C259.435 46.3427 274.848 34.7142 292.579 31.5877C310.31 28.4612 328.771 34.1169 346.996 47.1144C365.223 60.1134 383.18 80.4336 399.867 106.554C433.242 158.794 461.486 234.147 476.665 320.231Z" stroke="url(#paint89_linear_102_3)"/>
<path d="M477.042 322.489C490.717 408.824 488.544 489.267 473.995 549.526C466.721 579.657 456.358 604.716 443.356 622.941C430.356 641.164 414.742 652.522 396.959 655.338C379.176 658.155 360.817 652.178 342.821 638.864C324.824 625.549 307.224 604.919 290.995 578.511C258.537 525.697 231.613 449.862 217.939 363.527C204.265 277.191 206.437 196.748 220.986 136.489C228.26 106.358 238.623 81.2988 251.625 63.0739C264.626 44.851 280.239 33.4932 298.022 30.6767C315.805 27.8601 334.164 33.8371 352.16 47.1507C370.157 60.4658 387.757 81.0963 403.986 107.504C436.444 160.319 463.368 236.153 477.042 322.489Z" stroke="url(#paint90_linear_102_3)"/>
<path d="M477.381 324.753C489.546 411.314 485.97 491.707 470.372 551.703C462.573 581.702 451.774 606.577 438.456 624.572C425.139 642.565 409.33 653.649 391.5 656.154C373.671 658.66 355.419 652.364 337.659 638.738C319.896 625.111 302.66 604.176 286.894 577.489C255.363 524.117 229.766 447.824 217.6 361.263C205.435 274.702 209.011 194.309 224.609 134.313C232.409 104.313 243.207 79.4388 256.525 61.4436C269.842 43.4504 285.651 32.3669 303.481 29.8611C321.31 27.3553 339.562 33.6518 357.323 47.2775C375.085 60.9046 392.321 81.8392 408.088 108.526C439.619 161.899 465.216 238.192 477.381 324.753Z" stroke="url(#paint91_linear_102_3)"/>
<path d="M477.68 327.022C488.332 413.782 483.354 494.1 466.711 553.815C458.389 583.674 447.158 608.356 433.528 626.116C419.9 643.874 403.899 654.68 386.029 656.874C368.158 659.069 350.019 652.455 332.499 638.521C314.977 624.586 298.108 603.354 282.811 576.395C252.216 522.481 227.954 445.753 217.302 358.993C206.649 272.233 211.627 191.914 228.27 132.2C236.592 102.341 247.823 77.6586 261.453 59.8986C275.082 42.1405 291.082 31.3345 308.953 29.1403C326.823 26.9461 344.962 33.5602 362.482 47.4937C380.004 61.4288 396.873 82.661 412.171 109.619C442.765 163.534 467.027 240.262 477.68 327.022Z" stroke="url(#paint92_linear_102_3)"/>
<path d="M477.939 329.297C487.076 416.23 480.696 496.449 463.014 555.864C454.172 585.573 442.512 610.056 428.574 627.575C414.638 645.093 398.451 655.618 380.545 657.5C362.639 659.382 344.618 652.452 327.344 638.215C310.068 623.976 293.572 602.453 278.747 575.231C249.098 520.791 226.179 443.651 217.042 356.718C207.905 269.786 214.285 189.566 231.967 130.151C240.809 100.442 252.469 75.9599 266.407 58.4404C280.343 40.9229 296.53 30.3978 314.436 28.5158C332.342 26.6338 350.363 33.5635 367.637 47.8007C384.913 62.0394 401.409 83.5627 416.234 110.784C445.883 165.224 468.802 242.364 477.939 329.297Z" stroke="url(#paint93_linear_102_3)"/>
<path d="M478.158 331.576C485.777 418.655 477.998 498.751 459.281 557.848C449.923 587.398 437.837 611.674 423.596 628.947C409.355 646.219 392.988 656.46 375.051 658.029C357.115 659.598 339.218 652.355 322.195 637.818C305.17 623.28 289.053 601.472 274.705 573.997C246.01 519.047 224.441 441.519 216.823 354.44C209.205 267.361 216.983 187.265 235.7 128.168C245.059 98.6179 257.144 74.3425 271.386 57.069C285.626 39.7973 301.994 29.5564 319.93 27.9872C337.866 26.418 355.764 33.6611 372.787 48.1976C389.811 62.7356 405.929 84.5436 420.276 112.019C448.971 166.969 470.54 244.497 478.158 331.576Z" stroke="url(#paint94_linear_102_3)"/>
<path d="M478.338 333.859C484.435 421.057 475.26 501.005 455.515 559.767C445.642 589.149 433.134 613.21 418.594 630.232C404.054 647.252 387.51 657.206 369.549 658.462C351.588 659.718 333.82 652.164 317.053 637.332C300.285 622.499 284.551 600.413 270.685 572.691C242.954 517.249 222.741 439.357 216.643 352.158C210.546 264.959 219.721 185.012 239.466 126.25C249.339 96.8677 261.847 72.8069 276.388 55.7846C290.927 38.7641 307.471 28.8104 325.432 27.5544C343.393 26.2985 361.161 33.8528 377.928 48.6842C394.696 63.5172 410.431 85.6031 424.297 113.325C452.028 168.767 472.24 246.66 478.338 333.859Z" stroke="url(#paint95_linear_102_3)"/>
<path d="M478.478 336.143C483.052 423.435 472.483 503.21 451.715 561.618C441.331 590.824 428.406 614.662 413.57 631.428C398.736 648.193 382.021 657.856 364.041 658.798C346.06 659.741 328.427 651.877 311.921 636.756C295.414 621.632 280.068 599.275 266.688 571.315C239.929 515.398 221.078 437.164 216.504 349.872C211.929 262.581 222.498 182.805 243.266 124.397C253.65 95.1915 266.575 71.3527 281.411 54.5867C296.245 37.8226 312.961 28.1591 330.941 27.2168C348.921 26.2745 366.555 34.1378 383.06 49.2596C399.567 64.3829 414.913 86.7401 428.293 114.7C455.053 170.618 473.903 248.851 478.478 336.143Z" stroke="url(#paint96_linear_102_3)"/>
<path d="M478.577 338.43C481.628 425.788 469.668 505.367 447.884 563.404C436.992 592.423 423.652 616.033 408.526 632.538C393.402 649.04 376.52 658.411 358.527 659.039C340.533 659.667 323.039 651.497 306.8 636.09C290.56 620.681 275.606 598.059 262.716 569.87C236.936 513.494 219.454 434.943 216.404 347.585C213.353 260.227 225.313 180.648 247.097 122.611C257.989 93.5913 271.329 69.9817 286.455 53.4772C301.579 36.9745 318.461 27.6042 336.455 26.9759C354.448 26.3475 371.942 34.5174 388.181 49.9249C404.422 65.334 419.375 87.9556 432.266 116.145C458.045 172.521 475.527 251.071 478.577 338.43Z" stroke="url(#paint97_linear_102_3)"/>
<path d="M478.637 340.718C480.163 428.116 466.816 507.474 444.023 565.122C432.625 593.947 418.876 617.321 403.464 633.559C388.054 649.795 371.012 658.869 353.009 659.183C335.007 659.498 317.659 651.024 301.691 635.335C285.722 619.645 271.165 596.766 258.769 568.356C233.978 511.539 217.869 432.695 216.344 345.297C214.818 257.898 228.165 178.54 250.959 120.892C262.356 92.0673 276.105 68.6941 291.517 52.4561C306.927 36.2199 323.97 27.1456 341.972 26.8314C359.974 26.5172 377.322 34.9911 393.29 50.6797C409.259 66.3699 423.816 89.249 436.212 117.659C461.003 174.476 477.112 253.32 478.637 340.718Z" stroke="url(#paint98_linear_102_3)"/>
<path d="M478.657 343.007C478.657 430.419 463.927 509.532 440.131 566.773C428.233 595.395 414.078 618.525 398.385 634.491C382.693 650.456 365.495 659.232 347.491 659.232C329.486 659.232 312.288 650.456 296.597 634.491C280.904 618.525 266.748 595.395 254.85 566.773C231.054 509.532 216.324 430.419 216.324 343.007C216.324 255.596 231.054 176.483 254.85 119.241C266.748 90.6197 280.904 67.49 296.597 51.5234C312.288 35.5586 329.486 26.7832 347.491 26.7832C365.495 26.7832 382.693 35.5586 398.385 51.5234C414.078 67.49 428.233 90.6197 440.131 119.241C463.927 176.483 478.657 255.596 478.657 343.007Z" stroke="url(#paint99_linear_102_3)"/>
<g filter="url(#filter0_b_102_3)">
<rect y="369" width="690" height="317" fill="white" fill-opacity="0.02"/>
</g>
<defs>
<filter id="filter0_b_102_3" x="-36" y="333" width="762" height="389" filterUnits="userSpaceOnUse" color-interpolation-filters="sRGB">
<feFlood flood-opacity="0" result="BackgroundImageFix"/>
<feGaussianBlur in="BackgroundImageFix" stdDeviation="18"/>
<feComposite in2="SourceAlpha" operator="in" result="effect1_backgroundBlur_102_3"/>
<feBlend mode="normal" in="SourceGraphic" in2="effect1_backgroundBlur_102_3" result="shape"/>
</filter>
<linearGradient id="paint0_linear_102_3" x1="360.156" y1="418.786" x2="335.656" y2="264.097" gradientUnits="userSpaceOnUse">
<stop stop-color="#FF1CF7"/>
<stop offset="1" stop-color="#00F0FF"/>
</linearGradient>
<linearGradient id="paint1_linear_102_3" x1="358.832" y1="418.995" x2="337.035" y2="263.903" gradientUnits="userSpaceOnUse">
<stop stop-color="#FF1CF7"/>
<stop offset="1" stop-color="#00F0FF"/>
</linearGradient>
<linearGradient id="paint2_linear_102_3" x1="357.504" y1="419.181" x2="338.417" y2="263.732" gradientUnits="userSpaceOnUse">
<stop stop-color="#FF1CF7"/>
<stop offset="1" stop-color="#00F0FF"/>
</linearGradient>
<linearGradient id="paint3_linear_102_3" x1="356.173" y1="419.345" x2="339.802" y2="263.586" gradientUnits="userSpaceOnUse">
<stop stop-color="#FF1CF7"/>
<stop offset="1" stop-color="#00F0FF"/>
</linearGradient>
<linearGradient id="paint4_linear_102_3" x1="354.84" y1="419.485" x2="341.19" y2="263.464" gradientUnits="userSpaceOnUse">
<stop stop-color="#FF1CF7"/>
<stop offset="1" stop-color="#00F0FF"/>
</linearGradient>
<linearGradient id="paint5_linear_102_3" x1="353.504" y1="419.601" x2="342.579" y2="263.366" gradientUnits="userSpaceOnUse">
<stop stop-color="#FF1CF7"/>
<stop offset="1" stop-color="#00F0FF"/>
</linearGradient>
<linearGradient id="paint6_linear_102_3" x1="352.166" y1="419.694" x2="343.969" y2="263.292" gradientUnits="userSpaceOnUse">
<stop stop-color="#FF1CF7"/>
<stop offset="1" stop-color="#00F0FF"/>
</linearGradient>
<linearGradient id="paint7_linear_102_3" x1="350.827" y1="419.764" x2="345.361" y2="263.243" gradientUnits="userSpaceOnUse">
<stop stop-color="#FF1CF7"/>
<stop offset="1" stop-color="#00F0FF"/>
</linearGradient>
<linearGradient id="paint8_linear_102_3" x1="349.487" y1="419.81" x2="346.754" y2="263.217" gradientUnits="userSpaceOnUse">
<stop stop-color="#FF1CF7"/>
<stop offset="1" stop-color="#00F0FF"/>
</linearGradient>
<linearGradient id="paint9_linear_102_3" x1="348.146" y1="419.834" x2="348.146" y2="263.217" gradientUnits="userSpaceOnUse">
<stop stop-color="#FF1CF7"/>
<stop offset="1" stop-color="#00F0FF"/>
</linearGradient>
<linearGradient id="paint10_linear_102_3" x1="346.805" y1="419.834" x2="349.539" y2="263.241" gradientUnits="userSpaceOnUse">
<stop stop-color="#FF1CF7"/>
<stop offset="1" stop-color="#00F0FF"/>
</linearGradient>
<linearGradient id="paint11_linear_102_3" x1="345.465" y1="419.81" x2="350.93" y2="263.288" gradientUnits="userSpaceOnUse">
<stop stop-color="#FF1CF7"/>
<stop offset="1" stop-color="#00F0FF"/>
</linearGradient>
<linearGradient id="paint12_linear_102_3" x1="344.125" y1="419.763" x2="352.321" y2="263.361" gradientUnits="userSpaceOnUse">
<stop stop-color="#FF1CF7"/>
<stop offset="1" stop-color="#00F0FF"/>
</linearGradient>
<linearGradient id="paint13_linear_102_3" x1="342.786" y1="419.692" x2="353.711" y2="263.457" gradientUnits="userSpaceOnUse">
<stop stop-color="#FF1CF7"/>
<stop offset="1" stop-color="#00F0FF"/>
</linearGradient>
<linearGradient id="paint14_linear_102_3" x1="341.448" y1="419.598" x2="355.098" y2="263.578" gradientUnits="userSpaceOnUse">
<stop stop-color="#FF1CF7"/>
<stop offset="1" stop-color="#00F0FF"/>
</linearGradient>
<linearGradient id="paint15_linear_102_3" x1="340.112" y1="419.482" x2="356.483" y2="263.723" gradientUnits="userSpaceOnUse">
<stop stop-color="#FF1CF7"/>
<stop offset="1" stop-color="#00F0FF"/>
</linearGradient>
<linearGradient id="paint16_linear_102_3" x1="338.779" y1="419.341" x2="357.865" y2="263.891" gradientUnits="userSpaceOnUse">
<stop stop-color="#FF1CF7"/>
<stop offset="1" stop-color="#00F0FF"/>
</linearGradient>
<linearGradient id="paint17_linear_102_3" x1="337.448" y1="419.177" x2="359.245" y2="264.085" gradientUnits="userSpaceOnUse">
<stop stop-color="#FF1CF7"/>
<stop offset="1" stop-color="#00F0FF"/>
</linearGradient>
<linearGradient id="paint18_linear_102_3" x1="336.12" y1="418.99" x2="360.62" y2="264.302" gradientUnits="userSpaceOnUse">
<stop stop-color="#FF1CF7"/>
<stop offset="1" stop-color="#00F0FF"/>
</linearGradient>
<linearGradient id="paint19_linear_102_3" x1="334.796" y1="418.78" x2="361.992" y2="264.543" gradientUnits="userSpaceOnUse">
<stop stop-color="#FF1CF7"/>
<stop offset="1" stop-color="#00F0FF"/>
</linearGradient>
<linearGradient id="paint20_linear_102_3" x1="333.475" y1="418.547" x2="363.359" y2="264.808" gradientUnits="userSpaceOnUse">
<stop stop-color="#FF1CF7"/>
<stop offset="1" stop-color="#00F0FF"/>
</linearGradient>
<linearGradient id="paint21_linear_102_3" x1="332.159" y1="418.291" x2="364.721" y2="265.097" gradientUnits="userSpaceOnUse">
<stop stop-color="#FF1CF7"/>
<stop offset="1" stop-color="#00F0FF"/>
</linearGradient>
<linearGradient id="paint22_linear_102_3" x1="330.847" y1="418.012" x2="366.079" y2="265.41" gradientUnits="userSpaceOnUse">
<stop stop-color="#FF1CF7"/>
<stop offset="1" stop-color="#00F0FF"/>
</linearGradient>
<linearGradient id="paint23_linear_102_3" x1="329.541" y1="417.71" x2="367.43" y2="265.746" gradientUnits="userSpaceOnUse">
<stop stop-color="#FF1CF7"/>
<stop offset="1" stop-color="#00F0FF"/>
</linearGradient>
<linearGradient id="paint24_linear_102_3" x1="328.24" y1="417.386" x2="368.775" y2="266.105" gradientUnits="userSpaceOnUse">
<stop stop-color="#FF1CF7"/>
<stop offset="1" stop-color="#00F0FF"/>
</linearGradient>
<linearGradient id="paint25_linear_102_3" x1="326.945" y1="417.038" x2="370.114" y2="266.489" gradientUnits="userSpaceOnUse">
<stop stop-color="#FF1CF7"/>
<stop offset="1" stop-color="#00F0FF"/>
</linearGradient>
<linearGradient id="paint26_linear_102_3" x1="325.656" y1="416.669" x2="371.446" y2="266.895" gradientUnits="userSpaceOnUse">
<stop stop-color="#FF1CF7"/>
<stop offset="1" stop-color="#00F0FF"/>
</linearGradient>
<linearGradient id="paint27_linear_102_3" x1="324.374" y1="416.276" x2="372.771" y2="267.325" gradientUnits="userSpaceOnUse">
<stop stop-color="#FF1CF7"/>
<stop offset="1" stop-color="#00F0FF"/>
</linearGradient>
<linearGradient id="paint28_linear_102_3" x1="323.098" y1="415.862" x2="374.088" y2="267.777" gradientUnits="userSpaceOnUse">
<stop stop-color="#FF1CF7"/>
<stop offset="1" stop-color="#00F0FF"/>
</linearGradient>
<linearGradient id="paint29_linear_102_3" x1="321.831" y1="415.425" x2="375.397" y2="268.253" gradientUnits="userSpaceOnUse">
<stop stop-color="#FF1CF7"/>
<stop offset="1" stop-color="#00F0FF"/>
</linearGradient>
<linearGradient id="paint30_linear_102_3" x1="320.571" y1="414.966" x2="376.697" y2="268.752" gradientUnits="userSpaceOnUse">
<stop stop-color="#FF1CF7"/>
<stop offset="1" stop-color="#00F0FF"/>
</linearGradient>
<linearGradient id="paint31_linear_102_3" x1="319.319" y1="414.485" x2="377.989" y2="269.273" gradientUnits="userSpaceOnUse">
<stop stop-color="#FF1CF7"/>
<stop offset="1" stop-color="#00F0FF"/>
</linearGradient>
<linearGradient id="paint32_linear_102_3" x1="318.076" y1="413.983" x2="379.271" y2="269.816" gradientUnits="userSpaceOnUse">
<stop stop-color="#FF1CF7"/>
<stop offset="1" stop-color="#00F0FF"/>
</linearGradient>
<linearGradient id="paint33_linear_102_3" x1="316.842" y1="413.458" x2="380.543" y2="270.382" gradientUnits="userSpaceOnUse">
<stop stop-color="#FF1CF7"/>
<stop offset="1" stop-color="#00F0FF"/>
</linearGradient>
<linearGradient id="paint34_linear_102_3" x1="315.617" y1="412.912" x2="381.806" y2="270.969" gradientUnits="userSpaceOnUse">
<stop stop-color="#FF1CF7"/>
<stop offset="1" stop-color="#00F0FF"/>
</linearGradient>
<linearGradient id="paint35_linear_102_3" x1="314.402" y1="412.346" x2="383.058" y2="271.58" gradientUnits="userSpaceOnUse">
<stop stop-color="#FF1CF7"/>
<stop offset="1" stop-color="#00F0FF"/>
</linearGradient>
<linearGradient id="paint36_linear_102_3" x1="313.196" y1="411.758" x2="384.299" y2="272.212" gradientUnits="userSpaceOnUse">
<stop stop-color="#FF1CF7"/>
<stop offset="1" stop-color="#00F0FF"/>
</linearGradient>
<linearGradient id="paint37_linear_102_3" x1="312.002" y1="411.149" x2="385.529" y2="272.864" gradientUnits="userSpaceOnUse">
<stop stop-color="#FF1CF7"/>
<stop offset="1" stop-color="#00F0FF"/>
</linearGradient>
<linearGradient id="paint38_linear_102_3" x1="310.818" y1="410.519" x2="386.747" y2="273.539" gradientUnits="userSpaceOnUse">
<stop stop-color="#FF1CF7"/>
<stop offset="1" stop-color="#00F0FF"/>
</linearGradient>
<linearGradient id="paint39_linear_102_3" x1="309.645" y1="409.869" x2="387.954" y2="274.235" gradientUnits="userSpaceOnUse">
<stop stop-color="#FF1CF7"/>
<stop offset="1" stop-color="#00F0FF"/>
</linearGradient>
<linearGradient id="paint40_linear_102_3" x1="308.484" y1="409.198" x2="389.148" y2="274.951" gradientUnits="userSpaceOnUse">
<stop stop-color="#FF1CF7"/>
<stop offset="1" stop-color="#00F0FF"/>
</linearGradient>
<linearGradient id="paint41_linear_102_3" x1="307.335" y1="408.507" x2="390.329" y2="275.688" gradientUnits="userSpaceOnUse">
<stop stop-color="#FF1CF7"/>
<stop offset="1" stop-color="#00F0FF"/>
</linearGradient>
<linearGradient id="paint42_linear_102_3" x1="306.198" y1="407.796" x2="391.498" y2="276.447" gradientUnits="userSpaceOnUse">
<stop stop-color="#FF1CF7"/>
<stop offset="1" stop-color="#00F0FF"/>
</linearGradient>
<linearGradient id="paint43_linear_102_3" x1="305.074" y1="407.066" x2="392.653" y2="277.224" gradientUnits="userSpaceOnUse">
<stop stop-color="#FF1CF7"/>
<stop offset="1" stop-color="#00F0FF"/>
</linearGradient>
<linearGradient id="paint44_linear_102_3" x1="303.962" y1="406.316" x2="393.794" y2="278.023" gradientUnits="userSpaceOnUse">
<stop stop-color="#FF1CF7"/>
<stop offset="1" stop-color="#00F0FF"/>
</linearGradient>
<linearGradient id="paint45_linear_102_3" x1="302.864" y1="405.547" x2="394.921" y2="278.841" gradientUnits="userSpaceOnUse">
<stop stop-color="#FF1CF7"/>
<stop offset="1" stop-color="#00F0FF"/>
</linearGradient>
<linearGradient id="paint46_linear_102_3" x1="301.779" y1="404.758" x2="396.033" y2="279.679" gradientUnits="userSpaceOnUse">
<stop stop-color="#FF1CF7"/>
<stop offset="1" stop-color="#00F0FF"/>
</linearGradient>
<linearGradient id="paint47_linear_102_3" x1="300.708" y1="403.951" x2="397.131" y2="280.536" gradientUnits="userSpaceOnUse">
<stop stop-color="#FF1CF7"/>
<stop offset="1" stop-color="#00F0FF"/>
</linearGradient>
<linearGradient id="paint48_linear_102_3" x1="299.652" y1="403.125" x2="398.214" y2="281.411" gradientUnits="userSpaceOnUse">
<stop stop-color="#FF1CF7"/>
<stop offset="1" stop-color="#00F0FF"/>
</linearGradient>
<linearGradient id="paint49_linear_102_3" x1="298.61" y1="402.282" x2="399.281" y2="282.306" gradientUnits="userSpaceOnUse">
<stop stop-color="#FF1CF7"/>
<stop offset="1" stop-color="#00F0FF"/>
</linearGradient>
<linearGradient id="paint50_linear_102_3" x1="297.583" y1="401.419" x2="400.333" y2="283.219" gradientUnits="userSpaceOnUse">
<stop stop-color="#FF1CF7"/>
<stop offset="1" stop-color="#00F0FF"/>
</linearGradient>
<linearGradient id="paint51_linear_102_3" x1="296.571" y1="400.539" x2="401.368" y2="284.15" gradientUnits="userSpaceOnUse">
<stop stop-color="#FF1CF7"/>
<stop offset="1" stop-color="#00F0FF"/>
</linearGradient>
<linearGradient id="paint52_linear_102_3" x1="295.575" y1="399.642" x2="402.387" y2="285.1" gradientUnits="userSpaceOnUse">
<stop stop-color="#FF1CF7"/>
<stop offset="1" stop-color="#00F0FF"/>
</linearGradient>
<linearGradient id="paint53_linear_102_3" x1="294.594" y1="398.727" x2="403.389" y2="286.067" gradientUnits="userSpaceOnUse">
<stop stop-color="#FF1CF7"/>
<stop offset="1" stop-color="#00F0FF"/>
</linearGradient>
<linearGradient id="paint54_linear_102_3" x1="293.63" y1="397.796" x2="404.375" y2="287.051" gradientUnits="userSpaceOnUse">
<stop stop-color="#FF1CF7"/>
<stop offset="1" stop-color="#00F0FF"/>
</linearGradient>
<linearGradient id="paint55_linear_102_3" x1="292.682" y1="396.847" x2="405.343" y2="288.052" gradientUnits="userSpaceOnUse">
<stop stop-color="#FF1CF7"/>
<stop offset="1" stop-color="#00F0FF"/>
</linearGradient>
<linearGradient id="paint56_linear_102_3" x1="291.751" y1="395.883" x2="406.293" y2="289.07" gradientUnits="userSpaceOnUse">
<stop stop-color="#FF1CF7"/>
<stop offset="1" stop-color="#00F0FF"/>
</linearGradient>
<linearGradient id="paint57_linear_102_3" x1="290.836" y1="394.902" x2="407.225" y2="290.104" gradientUnits="userSpaceOnUse">
<stop stop-color="#FF1CF7"/>
<stop offset="1" stop-color="#00F0FF"/>
</linearGradient>
<linearGradient id="paint58_linear_102_3" x1="289.939" y1="393.905" x2="408.139" y2="291.155" gradientUnits="userSpaceOnUse">
<stop stop-color="#FF1CF7"/>
<stop offset="1" stop-color="#00F0FF"/>
</linearGradient>
<linearGradient id="paint59_linear_102_3" x1="289.06" y1="392.893" x2="409.035" y2="292.222" gradientUnits="userSpaceOnUse">
<stop stop-color="#FF1CF7"/>
<stop offset="1" stop-color="#00F0FF"/>
</linearGradient>
<linearGradient id="paint60_linear_102_3" x1="288.198" y1="391.866" x2="409.912" y2="293.304" gradientUnits="userSpaceOnUse">
<stop stop-color="#FF1CF7"/>
<stop offset="1" stop-color="#00F0FF"/>
</linearGradient>
<linearGradient id="paint61_linear_102_3" x1="287.354" y1="390.824" x2="410.77" y2="294.401" gradientUnits="userSpaceOnUse">
<stop stop-color="#FF1CF7"/>
<stop offset="1" stop-color="#00F0FF"/>
</linearGradient>
<linearGradient id="paint62_linear_102_3" x1="286.529" y1="389.767" x2="411.609" y2="295.512" gradientUnits="userSpaceOnUse">
<stop stop-color="#FF1CF7"/>
<stop offset="1" stop-color="#00F0FF"/>
</linearGradient>
<linearGradient id="paint63_linear_102_3" x1="285.722" y1="388.696" x2="412.428" y2="296.639" gradientUnits="userSpaceOnUse">
<stop stop-color="#FF1CF7"/>
<stop offset="1" stop-color="#00F0FF"/>
</linearGradient>
<linearGradient id="paint64_linear_102_3" x1="284.934" y1="387.611" x2="413.227" y2="297.779" gradientUnits="userSpaceOnUse">
<stop stop-color="#FF1CF7"/>
<stop offset="1" stop-color="#00F0FF"/>
</linearGradient>
<linearGradient id="paint65_linear_102_3" x1="284.165" y1="386.512" x2="414.007" y2="298.933" gradientUnits="userSpaceOnUse">
<stop stop-color="#FF1CF7"/>
<stop offset="1" stop-color="#00F0FF"/>
</linearGradient>
<linearGradient id="paint66_linear_102_3" x1="283.416" y1="385.4" x2="414.766" y2="300.101" gradientUnits="userSpaceOnUse">
<stop stop-color="#FF1CF7"/>
<stop offset="1" stop-color="#00F0FF"/>
</linearGradient>
<linearGradient id="paint67_linear_102_3" x1="282.686" y1="384.275" x2="415.504" y2="301.281" gradientUnits="userSpaceOnUse">
<stop stop-color="#FF1CF7"/>
<stop offset="1" stop-color="#00F0FF"/>
</linearGradient>
<linearGradient id="paint68_linear_102_3" x1="281.975" y1="383.138" x2="416.222" y2="302.475" gradientUnits="userSpaceOnUse">
<stop stop-color="#FF1CF7"/>
<stop offset="1" stop-color="#00F0FF"/>
</linearGradient>
<linearGradient id="paint69_linear_102_3" x1="281.285" y1="381.989" x2="416.919" y2="303.68" gradientUnits="userSpaceOnUse">
<stop stop-color="#FF1CF7"/>
<stop offset="1" stop-color="#00F0FF"/>
</linearGradient>
<linearGradient id="paint70_linear_102_3" x1="280.615" y1="380.827" x2="417.595" y2="304.898" gradientUnits="userSpaceOnUse">
<stop stop-color="#FF1CF7"/>
<stop offset="1" stop-color="#00F0FF"/>
</linearGradient>
<linearGradient id="paint71_linear_102_3" x1="279.965" y1="379.654" x2="418.249" y2="306.127" gradientUnits="userSpaceOnUse">
<stop stop-color="#FF1CF7"/>
<stop offset="1" stop-color="#00F0FF"/>
</linearGradient>
<linearGradient id="paint72_linear_102_3" x1="279.336" y1="378.47" x2="418.882" y2="307.368" gradientUnits="userSpaceOnUse">
<stop stop-color="#FF1CF7"/>
<stop offset="1" stop-color="#00F0FF"/>
</linearGradient>
<linearGradient id="paint73_linear_102_3" x1="278.727" y1="377.275" x2="419.493" y2="308.619" gradientUnits="userSpaceOnUse">
<stop stop-color="#FF1CF7"/>
<stop offset="1" stop-color="#00F0FF"/>
</linearGradient>
<linearGradient id="paint74_linear_102_3" x1="278.14" y1="376.07" x2="420.083" y2="309.881" gradientUnits="userSpaceOnUse">
<stop stop-color="#FF1CF7"/>
<stop offset="1" stop-color="#00F0FF"/>
</linearGradient>
<linearGradient id="paint75_linear_102_3" x1="277.573" y1="374.855" x2="420.65" y2="311.153" gradientUnits="userSpaceOnUse">
<stop stop-color="#FF1CF7"/>
<stop offset="1" stop-color="#00F0FF"/>
</linearGradient>
<linearGradient id="paint76_linear_102_3" x1="277.028" y1="373.63" x2="421.194" y2="312.434" gradientUnits="userSpaceOnUse">
<stop stop-color="#FF1CF7"/>
<stop offset="1" stop-color="#00F0FF"/>
</linearGradient>
<linearGradient id="paint77_linear_102_3" x1="276.504" y1="372.396" x2="421.717" y2="313.726" gradientUnits="userSpaceOnUse">
<stop stop-color="#FF1CF7"/>
<stop offset="1" stop-color="#00F0FF"/>
</linearGradient>
<linearGradient id="paint78_linear_102_3" x1="276.002" y1="371.152" x2="422.217" y2="315.025" gradientUnits="userSpaceOnUse">
<stop stop-color="#FF1CF7"/>
<stop offset="1" stop-color="#00F0FF"/>
</linearGradient>
<linearGradient id="paint79_linear_102_3" x1="275.522" y1="369.9" x2="422.693" y2="316.334" gradientUnits="userSpaceOnUse">
<stop stop-color="#FF1CF7"/>
<stop offset="1" stop-color="#00F0FF"/>
</linearGradient>
<linearGradient id="paint80_linear_102_3" x1="275.064" y1="368.64" x2="423.148" y2="317.651" gradientUnits="userSpaceOnUse">
<stop stop-color="#FF1CF7"/>
<stop offset="1" stop-color="#00F0FF"/>
</linearGradient>
<linearGradient id="paint81_linear_102_3" x1="274.627" y1="367.372" x2="423.579" y2="318.975" gradientUnits="userSpaceOnUse">
<stop stop-color="#FF1CF7"/>
<stop offset="1" stop-color="#00F0FF"/>
</linearGradient>
<linearGradient id="paint82_linear_102_3" x1="274.213" y1="366.097" x2="423.986" y2="320.307" gradientUnits="userSpaceOnUse">
<stop stop-color="#FF1CF7"/>
<stop offset="1" stop-color="#00F0FF"/>
</linearGradient>
<linearGradient id="paint83_linear_102_3" x1="273.821" y1="364.814" x2="424.371" y2="321.645" gradientUnits="userSpaceOnUse">
<stop stop-color="#FF1CF7"/>
<stop offset="1" stop-color="#00F0FF"/>
</linearGradient>
<linearGradient id="paint84_linear_102_3" x1="273.452" y1="363.525" x2="424.732" y2="322.99" gradientUnits="userSpaceOnUse">
<stop stop-color="#FF1CF7"/>
<stop offset="1" stop-color="#00F0FF"/>
</linearGradient>
<linearGradient id="paint85_linear_102_3" x1="273.105" y1="362.23" x2="425.07" y2="324.341" gradientUnits="userSpaceOnUse">
<stop stop-color="#FF1CF7"/>
<stop offset="1" stop-color="#00F0FF"/>
</linearGradient>
<linearGradient id="paint86_linear_102_3" x1="272.781" y1="360.929" x2="425.384" y2="325.698" gradientUnits="userSpaceOnUse">
<stop stop-color="#FF1CF7"/>
<stop offset="1" stop-color="#00F0FF"/>
</linearGradient>
<linearGradient id="paint87_linear_102_3" x1="272.48" y1="359.622" x2="425.674" y2="327.059" gradientUnits="userSpaceOnUse">
<stop stop-color="#FF1CF7"/>
<stop offset="1" stop-color="#00F0FF"/>
</linearGradient>
<linearGradient id="paint88_linear_102_3" x1="272.201" y1="358.31" x2="425.94" y2="328.427" gradientUnits="userSpaceOnUse">
<stop stop-color="#FF1CF7"/>
<stop offset="1" stop-color="#00F0FF"/>
</linearGradient>
<linearGradient id="paint89_linear_102_3" x1="271.945" y1="356.994" x2="426.183" y2="329.798" gradientUnits="userSpaceOnUse">
<stop stop-color="#FF1CF7"/>
<stop offset="1" stop-color="#00F0FF"/>
</linearGradient>
<linearGradient id="paint90_linear_102_3" x1="271.713" y1="355.673" x2="426.401" y2="331.173" gradientUnits="userSpaceOnUse">
<stop stop-color="#FF1CF7"/>
<stop offset="1" stop-color="#00F0FF"/>
</linearGradient>
<linearGradient id="paint91_linear_102_3" x1="271.503" y1="354.349" x2="426.596" y2="332.552" gradientUnits="userSpaceOnUse">
<stop stop-color="#FF1CF7"/>
<stop offset="1" stop-color="#00F0FF"/>
</linearGradient>
<linearGradient id="paint92_linear_102_3" x1="271.317" y1="353.021" x2="426.766" y2="333.934" gradientUnits="userSpaceOnUse">
<stop stop-color="#FF1CF7"/>
<stop offset="1" stop-color="#00F0FF"/>
</linearGradient>
<linearGradient id="paint93_linear_102_3" x1="271.154" y1="351.69" x2="426.913" y2="335.319" gradientUnits="userSpaceOnUse">
<stop stop-color="#FF1CF7"/>
<stop offset="1" stop-color="#00F0FF"/>
</linearGradient>
<linearGradient id="paint94_linear_102_3" x1="271.014" y1="350.357" x2="427.035" y2="336.707" gradientUnits="userSpaceOnUse">
<stop stop-color="#FF1CF7"/>
<stop offset="1" stop-color="#00F0FF"/>
</linearGradient>
<linearGradient id="paint95_linear_102_3" x1="270.897" y1="349.022" x2="427.133" y2="338.096" gradientUnits="userSpaceOnUse">
<stop stop-color="#FF1CF7"/>
<stop offset="1" stop-color="#00F0FF"/>
</linearGradient>
<linearGradient id="paint96_linear_102_3" x1="270.804" y1="347.683" x2="427.206" y2="339.486" gradientUnits="userSpaceOnUse">
<stop stop-color="#FF1CF7"/>
<stop offset="1" stop-color="#00F0FF"/>
</linearGradient>
<linearGradient id="paint97_linear_102_3" x1="270.734" y1="346.344" x2="427.255" y2="340.878" gradientUnits="userSpaceOnUse">
<stop stop-color="#FF1CF7"/>
<stop offset="1" stop-color="#00F0FF"/>
</linearGradient>
<linearGradient id="paint98_linear_102_3" x1="270.688" y1="345.004" x2="427.28" y2="342.271" gradientUnits="userSpaceOnUse">
<stop stop-color="#FF1CF7"/>
<stop offset="1" stop-color="#00F0FF"/>
</linearGradient>
<linearGradient id="paint99_linear_102_3" x1="270.664" y1="343.663" x2="427.281" y2="343.663" gradientUnits="userSpaceOnUse">
<stop stop-color="#FF1CF7"/>
<stop offset="1" stop-color="#00F0FF"/>
</linearGradient>
</defs>
</svg>
