<svg width="907" height="255" viewBox="0 0 907 255" fill="none" xmlns="http://www.w3.org/2000/svg">
<rect y="167" width="294" height="88" rx="12" fill="white"/>
<rect x="333" y="167" width="241" height="88" rx="12" fill="white"/>
<rect x="613" y="167" width="294" height="88" rx="12" fill="white"/>
<path d="M34.4473 221.506C29.7305 221.506 26.75 219.25 26.5176 215.75L26.5039 215.531H30.4824L30.4961 215.668C30.6465 217.145 32.2461 218.143 34.5566 218.143C36.7578 218.143 38.2754 217.09 38.2754 215.572V215.559C38.2754 214.26 37.3047 213.535 34.8574 213.029L32.7793 212.605C28.6777 211.771 26.9141 209.857 26.9141 206.863V206.85C26.9141 203.186 30.0586 200.766 34.4336 200.766C39.041 200.766 41.748 203.199 42.0078 206.494L42.0215 206.672H38.1387L38.1113 206.508C37.8789 205.1 36.5117 204.115 34.4336 204.115C32.3965 204.129 31.043 205.059 31.043 206.535V206.549C31.043 207.834 32 208.6 34.3242 209.078L36.416 209.502C40.5859 210.363 42.4043 212.031 42.4043 215.107V215.121C42.4043 219.031 39.3691 221.506 34.4473 221.506ZM52.5352 221.314C47.9551 221.314 45.1797 218.32 45.1797 213.494V213.48C45.1797 208.695 47.9824 205.619 52.3711 205.619C56.7598 205.619 59.4941 208.627 59.4941 213.18V214.424H49.1309C49.1719 216.898 50.498 218.334 52.6172 218.334C54.3672 218.334 55.3379 217.404 55.6113 216.83L55.6523 216.748H59.3711L59.3438 216.885C58.8789 218.771 56.9375 221.314 52.5352 221.314ZM52.4395 208.613C50.7031 208.613 49.418 209.789 49.1719 211.922H55.666C55.4199 209.734 54.1758 208.613 52.4395 208.613ZM62.8984 221V200.191H66.8906V221H62.8984ZM72.1816 221V208.955H69.748V205.947H72.1816V204.539C72.1816 201.545 73.7129 200.041 77.3496 200.041C78.1562 200.041 78.8262 200.096 79.4004 200.191V202.857C79.1543 202.816 78.7305 202.775 78.2109 202.775C76.666 202.775 76.0918 203.5 76.0918 204.812V205.947H79.2773V208.955H76.1738V221H72.1816ZM82.3398 214.834V211.238H91.4316V214.834H82.3398ZM96.0527 221V201.271H100.182V221H96.0527ZM104.57 221V205.947H108.562V208.271H108.809C109.492 206.645 110.982 205.619 113.129 205.619C116.479 205.619 118.283 207.67 118.283 211.266V221H114.291V212.168C114.291 210.049 113.416 208.928 111.529 208.928C109.684 208.928 108.562 210.254 108.562 212.291V221H104.57ZM128.4 221.055C124.736 221.055 123.26 219.865 123.26 216.939V208.955H120.936V205.947H123.26V202.352H127.293V205.947H130.396V208.955H127.293V216.023C127.293 217.377 127.867 217.979 129.221 217.979C129.74 217.979 130.014 217.951 130.396 217.91V220.877C129.904 220.973 129.166 221.055 128.4 221.055ZM140.295 221.314C135.66 221.314 132.871 218.375 132.871 213.48V213.453C132.871 208.6 135.701 205.619 140.295 205.619C144.889 205.619 147.719 208.586 147.719 213.453V213.48C147.719 218.389 144.93 221.314 140.295 221.314ZM140.295 218.184C142.414 218.184 143.631 216.447 143.631 213.48V213.453C143.631 210.514 142.4 208.75 140.295 208.75C138.176 208.75 136.959 210.514 136.959 213.453V213.48C136.959 216.447 138.162 218.184 140.295 218.184ZM150.973 221V205.947H154.965V208.285H155.211C155.689 206.658 157.057 205.701 159.012 205.701C159.545 205.701 160.105 205.783 160.502 205.893V209.379C159.9 209.242 159.285 209.146 158.67 209.146C156.4 209.146 154.965 210.445 154.965 212.578V221H150.973ZM168.186 221.232C164.426 221.232 162.074 218.293 162.074 213.48V213.453C162.074 208.613 164.371 205.701 168.186 205.701C170.25 205.701 171.932 206.713 172.684 208.354H172.93V200.191H176.922V221H172.93V218.662H172.684C171.904 220.289 170.305 221.232 168.186 221.232ZM169.539 217.924C171.658 217.924 172.971 216.256 172.971 213.494V213.467C172.971 210.705 171.645 209.01 169.539 209.01C167.434 209.01 166.135 210.705 166.135 213.453V213.48C166.135 216.256 167.434 217.924 169.539 217.924ZM186.027 221.314C182.65 221.314 180.914 219.264 180.914 215.682V205.947H184.906V214.766C184.906 216.898 185.713 218.006 187.6 218.006C189.568 218.006 190.635 216.68 190.635 214.643V205.947H194.627V221H190.635V218.676H190.389C189.705 220.316 188.174 221.314 186.027 221.314ZM205.264 221.314C200.561 221.314 197.895 218.457 197.895 213.453V213.426C197.895 208.477 200.547 205.619 205.264 205.619C209.256 205.619 211.621 207.793 211.977 211.156V211.197H208.258L208.244 211.17C207.984 209.707 206.986 208.75 205.277 208.75C203.131 208.75 201.955 210.418 201.955 213.426V213.453C201.955 216.502 203.145 218.184 205.277 218.184C206.918 218.184 207.889 217.404 208.244 215.9L208.271 215.846H211.963L211.949 215.928C211.539 219.209 209.188 221.314 205.264 221.314ZM221.479 221.055C217.814 221.055 216.338 219.865 216.338 216.939V208.955H214.014V205.947H216.338V202.352H220.371V205.947H223.475V208.955H220.371V216.023C220.371 217.377 220.945 217.979 222.299 217.979C222.818 217.979 223.092 217.951 223.475 217.91V220.877C222.982 220.973 222.244 221.055 221.479 221.055ZM228.834 203.637C227.604 203.637 226.578 202.652 226.578 201.422C226.578 200.178 227.604 199.193 228.834 199.193C230.064 199.193 231.076 200.178 231.076 201.422C231.076 202.652 230.064 203.637 228.834 203.637ZM226.824 221V205.947H230.816V221H226.824ZM241.521 221.314C236.887 221.314 234.098 218.375 234.098 213.48V213.453C234.098 208.6 236.928 205.619 241.521 205.619C246.115 205.619 248.945 208.586 248.945 213.453V213.48C248.945 218.389 246.156 221.314 241.521 221.314ZM241.521 218.184C243.641 218.184 244.857 216.447 244.857 213.48V213.453C244.857 210.514 243.627 208.75 241.521 208.75C239.402 208.75 238.186 210.514 238.186 213.453V213.48C238.186 216.447 239.389 218.184 241.521 218.184ZM252.199 221V205.947H256.191V208.271H256.438C257.121 206.645 258.611 205.619 260.758 205.619C264.107 205.619 265.912 207.67 265.912 211.266V221H261.92V212.168C261.92 210.049 261.045 208.928 259.158 208.928C257.312 208.928 256.191 210.254 256.191 212.291V221H252.199Z" fill="#1D1D1F"/>
<path d="M399.393 221V201.271H407.609C412.094 201.271 414.664 203.664 414.664 207.547V207.574C414.664 210.104 413.352 212.277 411.096 213.166L415.252 221H410.576L406.898 213.781H403.521V221H399.393ZM403.521 210.773H407.158C409.223 210.773 410.439 209.598 410.439 207.656V207.629C410.439 205.729 409.168 204.498 407.104 204.498H403.521V210.773ZM424.562 221.314C419.982 221.314 417.207 218.32 417.207 213.494V213.48C417.207 208.695 420.01 205.619 424.398 205.619C428.787 205.619 431.521 208.627 431.521 213.18V214.424H421.158C421.199 216.898 422.525 218.334 424.645 218.334C426.395 218.334 427.365 217.404 427.639 216.83L427.68 216.748H431.398L431.371 216.885C430.906 218.771 428.965 221.314 424.562 221.314ZM424.467 208.613C422.73 208.613 421.445 209.789 421.199 211.922H427.693C427.447 209.734 426.203 208.613 424.467 208.613ZM440.777 221.314C436.689 221.314 434.365 219.482 434.078 216.898L434.064 216.844H437.988L438.016 216.898C438.33 217.828 439.246 218.498 440.818 218.498C442.35 218.498 443.389 217.842 443.389 216.844V216.816C443.389 216.01 442.787 215.504 441.256 215.162L438.74 214.629C435.869 214.014 434.447 212.605 434.447 210.35V210.336C434.447 207.506 436.963 205.619 440.723 205.619C444.674 205.619 446.861 207.588 447.025 210.008V210.062H443.32L443.307 209.994C443.088 209.188 442.199 208.436 440.709 208.436C439.328 208.436 438.344 209.078 438.344 210.09V210.104C438.344 210.91 438.904 211.375 440.463 211.717L442.965 212.25C445.973 212.893 447.381 214.15 447.381 216.379V216.393C447.381 219.373 444.633 221.314 440.777 221.314ZM455.625 221.314C452.248 221.314 450.512 219.264 450.512 215.682V205.947H454.504V214.766C454.504 216.898 455.311 218.006 457.197 218.006C459.166 218.006 460.232 216.68 460.232 214.643V205.947H464.225V221H460.232V218.676H459.986C459.303 220.316 457.771 221.314 455.625 221.314ZM468.23 221V205.947H472.223V208.299H472.469C473.111 206.604 474.67 205.619 476.639 205.619C478.689 205.619 480.207 206.658 480.822 208.395H481.068C481.752 206.727 483.502 205.619 485.607 205.619C488.602 205.619 490.475 207.561 490.475 210.664V221H486.482V211.662C486.482 209.844 485.662 208.928 483.994 208.928C482.381 208.928 481.342 210.117 481.342 211.744V221H477.35V211.484C477.35 209.871 476.434 208.928 474.875 208.928C473.316 208.928 472.223 210.199 472.223 211.922V221H468.23ZM500.961 221.314C496.381 221.314 493.605 218.32 493.605 213.494V213.48C493.605 208.695 496.408 205.619 500.797 205.619C505.186 205.619 507.92 208.627 507.92 213.18V214.424H497.557C497.598 216.898 498.924 218.334 501.043 218.334C502.793 218.334 503.764 217.404 504.037 216.83L504.078 216.748H507.797L507.77 216.885C507.305 218.771 505.363 221.314 500.961 221.314ZM500.865 208.613C499.129 208.613 497.844 209.789 497.598 211.922H504.092C503.846 209.734 502.602 208.613 500.865 208.613Z" fill="#1D1D1F"/>
<path d="M640.393 221V201.271H645.123L650.578 215.709H650.824L656.266 201.271H660.996V221H657.318V207.574H657.045L651.986 221H649.402L644.344 207.574H644.07V221H640.393ZM672.084 221.314C667.449 221.314 664.66 218.375 664.66 213.48V213.453C664.66 208.6 667.49 205.619 672.084 205.619C676.678 205.619 679.508 208.586 679.508 213.453V213.48C679.508 218.389 676.719 221.314 672.084 221.314ZM672.084 218.184C674.203 218.184 675.42 216.447 675.42 213.48V213.453C675.42 210.514 674.189 208.75 672.084 208.75C669.965 208.75 668.748 210.514 668.748 213.453V213.48C668.748 216.447 669.951 218.184 672.084 218.184ZM689.01 221.055C685.346 221.055 683.869 219.865 683.869 216.939V208.955H681.545V205.947H683.869V202.352H687.902V205.947H691.006V208.955H687.902V216.023C687.902 217.377 688.477 217.979 689.83 217.979C690.35 217.979 690.623 217.951 691.006 217.91V220.877C690.514 220.973 689.775 221.055 689.01 221.055ZM696.365 203.637C695.135 203.637 694.109 202.652 694.109 201.422C694.109 200.178 695.135 199.193 696.365 199.193C697.596 199.193 698.607 200.178 698.607 201.422C698.607 202.652 697.596 203.637 696.365 203.637ZM694.355 221V205.947H698.348V221H694.355ZM706.305 221L701.068 205.947H705.348L708.465 217.268H708.711L711.801 205.947H715.998L710.789 221H706.305ZM722.301 221.232C719.43 221.232 717.393 219.455 717.393 216.721V216.693C717.393 213.986 719.484 212.4 723.23 212.182L726.867 211.963V210.719C726.867 209.42 725.979 208.682 724.338 208.682C722.902 208.682 721.986 209.188 721.672 210.076L721.645 210.131H717.953L717.967 210.008C718.281 207.369 720.77 205.619 724.557 205.619C728.549 205.619 730.805 207.506 730.805 210.719V221H726.867V219.004H726.621C725.855 220.398 724.27 221.232 722.301 221.232ZM721.289 216.475C721.289 217.623 722.26 218.32 723.641 218.32C725.486 218.32 726.867 217.104 726.867 215.518V214.41L723.832 214.602C722.123 214.711 721.289 215.354 721.289 216.447V216.475ZM740.963 221.055C737.299 221.055 735.822 219.865 735.822 216.939V208.955H733.498V205.947H735.822V202.352H739.855V205.947H742.959V208.955H739.855V216.023C739.855 217.377 740.43 217.979 741.783 217.979C742.303 217.979 742.576 217.951 742.959 217.91V220.877C742.467 220.973 741.729 221.055 740.963 221.055ZM748.318 203.637C747.088 203.637 746.062 202.652 746.062 201.422C746.062 200.178 747.088 199.193 748.318 199.193C749.549 199.193 750.561 200.178 750.561 201.422C750.561 202.652 749.549 203.637 748.318 203.637ZM746.309 221V205.947H750.301V221H746.309ZM761.006 221.314C756.371 221.314 753.582 218.375 753.582 213.48V213.453C753.582 208.6 756.412 205.619 761.006 205.619C765.6 205.619 768.43 208.586 768.43 213.453V213.48C768.43 218.389 765.641 221.314 761.006 221.314ZM761.006 218.184C763.125 218.184 764.342 216.447 764.342 213.48V213.453C764.342 210.514 763.111 208.75 761.006 208.75C758.887 208.75 757.67 210.514 757.67 213.453V213.48C757.67 216.447 758.873 218.184 761.006 218.184ZM771.684 221V205.947H775.676V208.271H775.922C776.605 206.645 778.096 205.619 780.242 205.619C783.592 205.619 785.396 207.67 785.396 211.266V221H781.404V212.168C781.404 210.049 780.529 208.928 778.643 208.928C776.797 208.928 775.676 210.254 775.676 212.291V221H771.684ZM789.512 214.834V211.238H798.604V214.834H789.512ZM803.225 221V201.271H807.354V217.596H816.131V221H803.225ZM825.414 221.314C820.834 221.314 818.059 218.32 818.059 213.494V213.48C818.059 208.695 820.861 205.619 825.25 205.619C829.639 205.619 832.373 208.627 832.373 213.18V214.424H822.01C822.051 216.898 823.377 218.334 825.496 218.334C827.246 218.334 828.217 217.404 828.49 216.83L828.531 216.748H832.25L832.223 216.885C831.758 218.771 829.816 221.314 825.414 221.314ZM825.318 208.613C823.582 208.613 822.297 209.789 822.051 211.922H828.545C828.299 209.734 827.055 208.613 825.318 208.613ZM841.889 221.055C838.225 221.055 836.748 219.865 836.748 216.939V208.955H834.424V205.947H836.748V202.352H840.781V205.947H843.885V208.955H840.781V216.023C840.781 217.377 841.355 217.979 842.709 217.979C843.229 217.979 843.502 217.951 843.885 217.91V220.877C843.393 220.973 842.654 221.055 841.889 221.055ZM853.592 221.055C849.928 221.055 848.451 219.865 848.451 216.939V208.955H846.127V205.947H848.451V202.352H852.484V205.947H855.588V208.955H852.484V216.023C852.484 217.377 853.059 217.979 854.412 217.979C854.932 217.979 855.205 217.951 855.588 217.91V220.877C855.096 220.973 854.357 221.055 853.592 221.055ZM865.418 221.314C860.838 221.314 858.062 218.32 858.062 213.494V213.48C858.062 208.695 860.865 205.619 865.254 205.619C869.643 205.619 872.377 208.627 872.377 213.18V214.424H862.014C862.055 216.898 863.381 218.334 865.5 218.334C867.25 218.334 868.221 217.404 868.494 216.83L868.535 216.748H872.254L872.227 216.885C871.762 218.771 869.82 221.314 865.418 221.314ZM865.322 208.613C863.586 208.613 862.301 209.789 862.055 211.922H868.549C868.303 209.734 867.059 208.613 865.322 208.613ZM875.645 221V205.947H879.637V208.285H879.883C880.361 206.658 881.729 205.701 883.684 205.701C884.217 205.701 884.777 205.783 885.174 205.893V209.379C884.572 209.242 883.957 209.146 883.342 209.146C881.072 209.146 879.637 210.445 879.637 212.578V221H875.645Z" fill="#1D1D1F"/>
<circle cx="454" cy="167" r="14" fill="white"/>
<circle cx="760" cy="167" r="14" fill="white"/>
<circle cx="147" cy="167" r="14" fill="white"/>
<circle cx="454" cy="167" r="7" fill="#2464DC"/>
<circle cx="760" cy="167" r="7" fill="#2464DC"/>
<circle cx="147" cy="167" r="7" fill="#2464DC"/>
<rect x="288" width="331" height="88" rx="12" fill="#262626"/>
<rect x="380" y="71" width="148" height="34" rx="17" fill="#F9C514"/>
<g filter="url(#filter0_d_721_759)">
<path d="M439.973 93.2637C437.52 93.2637 435.959 92.0552 435.828 90.2314L435.82 90.1289H437.651L437.659 90.2021C437.747 91.0884 438.691 91.6743 440.032 91.6743C441.306 91.6743 442.2 91.0444 442.2 90.1362V90.1289C442.2 89.3672 441.65 88.9058 440.288 88.6128L439.153 88.3784C436.992 87.9243 436.055 86.9136 436.055 85.3389V85.3315C436.055 83.4419 437.681 82.1675 439.966 82.1675C442.31 82.1675 443.767 83.4492 443.899 85.1484L443.906 85.2437H442.097L442.083 85.1558C441.951 84.3354 441.167 83.7495 439.958 83.7568C438.787 83.7568 437.952 84.3062 437.952 85.207V85.2144C437.952 85.9614 438.486 86.4302 439.805 86.7085L440.94 86.9502C443.167 87.4189 444.097 88.3125 444.097 89.9092V89.9165C444.097 91.9746 442.507 93.2637 439.973 93.2637ZM449.18 93.0366C447.341 93.0366 446.587 92.4214 446.587 90.876V86.4082H445.342V84.9946H446.587V83.0317H448.44V84.9946H450.132V86.4082H448.44V90.4438C448.44 91.2422 448.755 91.5791 449.517 91.5791C449.773 91.5791 449.912 91.5718 450.132 91.5498V92.9561C449.868 93.0073 449.531 93.0366 449.18 93.0366ZM454.131 93.1318C452.607 93.1318 451.501 92.1943 451.501 90.7368V90.7222C451.501 89.2939 452.593 88.459 454.541 88.3418L456.599 88.2173V87.5288C456.599 86.7305 456.079 86.291 455.098 86.291C454.263 86.291 453.721 86.5913 453.538 87.1187L453.53 87.1479H451.809L451.816 87.082C451.992 85.7344 453.281 84.8408 455.186 84.8408C457.244 84.8408 458.401 85.8369 458.401 87.5288V93H456.599V91.9014H456.475C456.035 92.6777 455.186 93.1318 454.131 93.1318ZM453.303 90.6489C453.303 91.3301 453.882 91.7329 454.688 91.7329C455.786 91.7329 456.599 91.0151 456.599 90.063V89.4185L454.797 89.5356C453.779 89.6016 453.303 89.9751 453.303 90.6343V90.6489ZM460.591 93V84.9946H462.415V86.2251H462.539C462.81 85.3682 463.542 84.8628 464.597 84.8628C464.875 84.8628 465.161 84.8994 465.337 84.9507V86.584C465.044 86.5254 464.744 86.4814 464.429 86.4814C463.213 86.4814 462.415 87.2065 462.415 88.3491V93H460.591ZM470.156 93.0366C468.318 93.0366 467.563 92.4214 467.563 90.876V86.4082H466.318V84.9946H467.563V83.0317H469.417V84.9946H471.108V86.4082H469.417V90.4438C469.417 91.2422 469.731 91.5791 470.493 91.5791C470.75 91.5791 470.889 91.5718 471.108 91.5498V92.9561C470.845 93.0073 470.508 93.0366 470.156 93.0366Z" fill="white"/>
</g>
<g filter="url(#filter1_d_721_759)">
<path d="M391.434 53V33.2715H399.404C403.643 33.2715 406.186 35.6367 406.186 39.3965V39.4238C406.186 42.0352 404.805 44.1953 402.467 45.043L406.773 53H402.74L398.871 45.5762H394.961V53H391.434ZM394.961 42.8691H399.035C401.264 42.8691 402.562 41.625 402.562 39.5059V39.4785C402.562 37.4141 401.209 36.1289 398.967 36.1289H394.961V42.8691ZM416.098 53.3008C411.613 53.3008 408.906 50.375 408.906 45.5352V45.5078C408.906 40.709 411.654 37.7695 416.098 37.7695C420.555 37.7695 423.289 40.6953 423.289 45.5078V45.5352C423.289 50.375 420.568 53.3008 416.098 53.3008ZM416.098 50.5391C418.463 50.5391 419.803 48.6934 419.803 45.5488V45.5215C419.803 42.377 418.449 40.5176 416.098 40.5176C413.732 40.5176 412.379 42.377 412.379 45.5215V45.5488C412.379 48.6934 413.732 50.5391 416.098 50.5391ZM430.781 53.2461C427.938 53.2461 425.873 51.4961 425.873 48.7754V48.748C425.873 46.082 427.91 44.5234 431.547 44.3047L435.389 44.0723V42.7871C435.389 41.2969 434.418 40.4766 432.586 40.4766C431.027 40.4766 430.016 41.0371 429.674 42.0215L429.66 42.0762H426.447L426.461 41.9531C426.789 39.4375 429.195 37.7695 432.75 37.7695C436.592 37.7695 438.752 39.6289 438.752 42.7871V53H435.389V50.9492H435.156C434.336 52.3984 432.75 53.2461 430.781 53.2461ZM429.236 48.6113C429.236 49.8828 430.316 50.6348 431.82 50.6348C433.871 50.6348 435.389 49.2949 435.389 47.5176V46.3145L432.025 46.5332C430.125 46.6562 429.236 47.3535 429.236 48.584V48.6113ZM448.227 53.2461C444.48 53.2461 442.102 50.2793 442.102 45.5488V45.5215C442.102 40.7637 444.439 37.8105 448.227 37.8105C450.277 37.8105 451.986 38.8223 452.766 40.4355H452.998V32.2734H456.416V53H452.998V50.6621H452.766C451.945 52.2891 450.332 53.2461 448.227 53.2461ZM449.293 50.375C451.617 50.375 453.053 48.543 453.053 45.5488V45.5215C453.053 42.5273 451.604 40.6816 449.293 40.6816C446.982 40.6816 445.561 42.5137 445.561 45.5215V45.5488C445.561 48.5566 446.969 50.375 449.293 50.375ZM460.695 53V38.0566H464.1V40.3809H464.332C464.975 38.7129 466.479 37.7695 468.434 37.7695C470.457 37.7695 471.934 38.8086 472.576 40.4629H472.809C473.533 38.8359 475.256 37.7695 477.334 37.7695C480.342 37.7695 482.146 39.6152 482.146 42.7188V53H478.742V43.5527C478.742 41.6113 477.854 40.627 476.035 40.627C474.258 40.627 473.109 41.9531 473.109 43.6621V53H469.705V43.3066C469.705 41.6523 468.68 40.627 467.012 40.627C465.33 40.627 464.1 42.0488 464.1 43.9082V53H460.695ZM490.254 53.2461C487.41 53.2461 485.346 51.4961 485.346 48.7754V48.748C485.346 46.082 487.383 44.5234 491.02 44.3047L494.861 44.0723V42.7871C494.861 41.2969 493.891 40.4766 492.059 40.4766C490.5 40.4766 489.488 41.0371 489.146 42.0215L489.133 42.0762H485.92L485.934 41.9531C486.262 39.4375 488.668 37.7695 492.223 37.7695C496.064 37.7695 498.225 39.6289 498.225 42.7871V53H494.861V50.9492H494.629C493.809 52.3984 492.223 53.2461 490.254 53.2461ZM488.709 48.6113C488.709 49.8828 489.789 50.6348 491.293 50.6348C493.344 50.6348 494.861 49.2949 494.861 47.5176V46.3145L491.498 46.5332C489.598 46.6562 488.709 47.3535 488.709 48.584V48.6113ZM502.312 57.9629V38.0566H505.717V40.3945H505.949C506.77 38.7676 508.396 37.8105 510.488 37.8105C514.234 37.8105 516.627 40.791 516.627 45.5215V45.5488C516.627 50.3066 514.275 53.2461 510.488 53.2461C508.438 53.2461 506.729 52.2344 505.949 50.6211H505.717V57.9629H502.312ZM509.422 50.375C511.746 50.375 513.154 48.543 513.154 45.5488V45.5215C513.154 42.5137 511.746 40.6816 509.422 40.6816C507.111 40.6816 505.676 42.5137 505.676 45.5078V45.5352C505.676 48.5293 507.111 50.375 509.422 50.375Z" fill="white"/>
</g>
<defs>
<filter id="filter0_d_721_759" x="424.82" y="71.1675" width="57.2881" height="33.0962" filterUnits="userSpaceOnUse" color-interpolation-filters="sRGB">
<feFlood flood-opacity="0" result="BackgroundImageFix"/>
<feColorMatrix in="SourceAlpha" type="matrix" values="0 0 0 0 0 0 0 0 0 0 0 0 0 0 0 0 0 0 127 0" result="hardAlpha"/>
<feOffset/>
<feGaussianBlur stdDeviation="5.5"/>
<feColorMatrix type="matrix" values="0 0 0 0 0 0 0 0 0 0 0 0 0 0 0 0 0 0 1 0"/>
<feBlend mode="normal" in2="BackgroundImageFix" result="effect1_dropShadow_721_759"/>
<feBlend mode="normal" in="SourceGraphic" in2="effect1_dropShadow_721_759" result="shape"/>
</filter>
<filter id="filter1_d_721_759" x="380.434" y="21.2734" width="147.193" height="47.6895" filterUnits="userSpaceOnUse" color-interpolation-filters="sRGB">
<feFlood flood-opacity="0" result="BackgroundImageFix"/>
<feColorMatrix in="SourceAlpha" type="matrix" values="0 0 0 0 0 0 0 0 0 0 0 0 0 0 0 0 0 0 127 0" result="hardAlpha"/>
<feOffset/>
<feGaussianBlur stdDeviation="5.5"/>
<feColorMatrix type="matrix" values="0 0 0 0 0 0 0 0 0 0 0 0 0 0 0 0 0 0 1 0"/>
<feBlend mode="normal" in2="BackgroundImageFix" result="effect1_dropShadow_721_759"/>
<feBlend mode="normal" in="SourceGraphic" in2="effect1_dropShadow_721_759" result="shape"/>
</filter>
</defs>
</svg>
